%TF.GenerationSoftware,Altium Limited,Altium Designer,23.5.1 (21)*%
G04 Layer_Physical_Order=2*
G04 Layer_Color=16711680*
%FSLAX45Y45*%
%MOMM*%
%TF.SameCoordinates,90272B24-A97A-474C-8309-4AF10B7EB36B*%
%TF.FilePolarity,Positive*%
%TF.FileFunction,Copper,L2,Bot,Signal*%
%TF.Part,Single*%
G01*
G75*
%TA.AperFunction,Conductor*%
%ADD15C,0.15000*%
%TA.AperFunction,ComponentPad*%
G04:AMPARAMS|DCode=16|XSize=1.3mm|YSize=2mm|CornerRadius=0.325mm|HoleSize=0mm|Usage=FLASHONLY|Rotation=180.000|XOffset=0mm|YOffset=0mm|HoleType=Round|Shape=RoundedRectangle|*
%AMROUNDEDRECTD16*
21,1,1.30000,1.35000,0,0,180.0*
21,1,0.65000,2.00000,0,0,180.0*
1,1,0.65000,-0.32500,0.67500*
1,1,0.65000,0.32500,0.67500*
1,1,0.65000,0.32500,-0.67500*
1,1,0.65000,-0.32500,-0.67500*
%
%ADD16ROUNDEDRECTD16*%
%TA.AperFunction,ViaPad*%
%ADD17C,0.50000*%
G36*
X3076699Y2288466D02*
X3096500D01*
X3119092Y2292959D01*
X3138243Y2305756D01*
X3151040Y2324908D01*
X3155534Y2347500D01*
Y2400000D01*
X3239415D01*
Y2359882D01*
X3230500D01*
X3222618Y2358315D01*
X3215937Y2353850D01*
X3102682Y2240595D01*
X1912275D01*
X1911961Y2241355D01*
X1901355Y2251960D01*
X1887499Y2257700D01*
X1872501D01*
X1858645Y2251960D01*
X1848039Y2241355D01*
X1847725Y2240595D01*
X872275D01*
X871961Y2241355D01*
X861355Y2251960D01*
X847499Y2257700D01*
X832501D01*
X818645Y2251960D01*
X808040Y2241355D01*
X802300Y2227499D01*
Y2212501D01*
X808040Y2198645D01*
X818645Y2188039D01*
X832501Y2182300D01*
X847499D01*
X861355Y2188039D01*
X871961Y2198645D01*
X872275Y2199404D01*
X1847725D01*
X1848039Y2198645D01*
X1858645Y2188039D01*
X1872501Y2182300D01*
X1887499D01*
X1901355Y2188039D01*
X1911961Y2198645D01*
X1912275Y2199404D01*
X3102682D01*
X3109405Y2192682D01*
Y2112275D01*
X3108645Y2111960D01*
X3098040Y2101355D01*
X3092300Y2087499D01*
Y2072501D01*
X3098040Y2058645D01*
X3108645Y2048039D01*
X3122501Y2042300D01*
X3137499D01*
X3151355Y2048039D01*
X3161961Y2058645D01*
X3166704Y2070097D01*
X3179404Y2067571D01*
Y2018466D01*
X3166704Y2013491D01*
X3152700Y2019292D01*
Y1970000D01*
Y1920708D01*
X3166704Y1926509D01*
X3179404Y1921535D01*
Y1919291D01*
X3180972Y1911409D01*
X3185437Y1904728D01*
X3198516Y1891649D01*
Y1612275D01*
X3197756Y1611960D01*
X3187151Y1601355D01*
X3181411Y1587499D01*
Y1572501D01*
X3187151Y1558645D01*
X3197756Y1548039D01*
X3211612Y1542300D01*
X3226610D01*
X3240466Y1548039D01*
X3251072Y1558645D01*
X3256811Y1572501D01*
Y1587499D01*
X3251072Y1601355D01*
X3240466Y1611960D01*
X3239707Y1612275D01*
Y1900180D01*
X3238139Y1908061D01*
X3233675Y1914743D01*
X3220596Y1927822D01*
Y2221469D01*
X3248531Y2249404D01*
X3365490D01*
X3373371Y2250972D01*
X3380053Y2255437D01*
X3459021Y2334404D01*
X3496019D01*
X3496923Y2329864D01*
X3506913Y2314913D01*
X3521864Y2304922D01*
X3539500Y2301414D01*
X3604500D01*
X3622136Y2304922D01*
X3637087Y2314913D01*
X3647077Y2329864D01*
X3650585Y2347500D01*
Y2400000D01*
X4280000D01*
Y50000D01*
X3396585D01*
Y92500D01*
X3393077Y110136D01*
X3383087Y125087D01*
X3368136Y135077D01*
X3350500Y138585D01*
X3285500D01*
X3267864Y135077D01*
X3252913Y125087D01*
X3242923Y110136D01*
X3239415Y92500D01*
Y50000D01*
X3142585D01*
Y92500D01*
X3139077Y110136D01*
X3129087Y125087D01*
X3114136Y135077D01*
X3096500Y138585D01*
X3084596D01*
Y159404D01*
X3470903D01*
X3482771Y147536D01*
X3489453Y143072D01*
X3497335Y141504D01*
X3903983D01*
X3911864Y143072D01*
X3918546Y147536D01*
X3952463Y181454D01*
X3956928Y188135D01*
X3958496Y196017D01*
X3958496Y196018D01*
Y684323D01*
X3956928Y692204D01*
X3952463Y698886D01*
X3900595Y750754D01*
Y965345D01*
X3919563Y984312D01*
X3919563Y984313D01*
X3924028Y990994D01*
X3925596Y998876D01*
Y1208290D01*
X3925955Y1208440D01*
X3936561Y1219045D01*
X3942300Y1232901D01*
Y1247899D01*
X3936561Y1261755D01*
X3925955Y1272361D01*
X3912099Y1278100D01*
X3897101D01*
X3883245Y1272361D01*
X3872730Y1261846D01*
X2867793D01*
X2866960Y1263855D01*
X2856355Y1274460D01*
X2842499Y1280200D01*
X2827501D01*
X2813645Y1274460D01*
X2807280Y1268096D01*
X1804346D01*
X1801961Y1273855D01*
X1791355Y1284460D01*
X1777499Y1290200D01*
X1762501D01*
X1748645Y1284460D01*
X1738039Y1273855D01*
X1735654Y1268096D01*
X1722502D01*
X1722500Y1268097D01*
X1714619Y1266529D01*
X1707937Y1262064D01*
X1706469Y1260596D01*
X749775D01*
X749461Y1261355D01*
X738855Y1271961D01*
X724999Y1277700D01*
X710001D01*
X696145Y1271961D01*
X685539Y1261355D01*
X679800Y1247499D01*
Y1232501D01*
X685539Y1218645D01*
X696145Y1208039D01*
X710001Y1202300D01*
X724999D01*
X738855Y1208039D01*
X749461Y1218645D01*
X749775Y1219404D01*
X1715000D01*
X1722881Y1220972D01*
X1729563Y1225437D01*
X1731031Y1226905D01*
X1742279D01*
X1748645Y1220539D01*
X1762501Y1214800D01*
X1777499D01*
X1791355Y1220539D01*
X1797720Y1226904D01*
X2800654D01*
X2803039Y1221145D01*
X2813645Y1210539D01*
X2827501Y1204800D01*
X2842499D01*
X2856355Y1210539D01*
X2866470Y1220654D01*
X3871973D01*
X3872639Y1219045D01*
X3883245Y1208440D01*
X3884404Y1207959D01*
Y1007407D01*
X3865437Y988439D01*
X3860972Y981757D01*
X3859404Y973876D01*
Y742223D01*
X3860972Y734341D01*
X3865437Y727659D01*
X3917304Y675792D01*
Y253972D01*
X3904604Y248711D01*
X3901355Y251960D01*
X3887499Y257700D01*
X3872501D01*
X3858645Y251960D01*
X3852280Y245596D01*
X2884346D01*
X2881960Y251355D01*
X2876611Y256704D01*
X2881872Y269404D01*
X3122500D01*
X3130381Y270972D01*
X3137063Y275437D01*
X3219563Y357937D01*
X3224028Y364619D01*
X3225596Y372500D01*
Y697725D01*
X3226355Y698039D01*
X3236961Y708645D01*
X3242700Y722501D01*
Y737499D01*
X3236961Y751355D01*
X3226355Y761961D01*
X3212499Y767700D01*
X3197501D01*
X3183645Y761961D01*
X3173039Y751355D01*
X3167300Y737499D01*
Y722501D01*
X3173039Y708645D01*
X3183645Y698039D01*
X3184404Y697725D01*
Y381031D01*
X3113969Y310596D01*
X2195376D01*
X2195061Y311355D01*
X2184456Y321960D01*
X2170599Y327700D01*
X2155601D01*
X2141745Y321960D01*
X2131140Y311355D01*
X2128754Y305596D01*
X1131220D01*
X1124455Y312361D01*
X1110599Y318100D01*
X1095601D01*
X1081745Y312361D01*
X1071140Y301755D01*
X1065400Y287899D01*
Y281298D01*
X1062198Y278096D01*
X384775D01*
X384460Y278855D01*
X373855Y289461D01*
X359999Y295200D01*
X345001D01*
X331145Y289461D01*
X320539Y278855D01*
X314800Y264999D01*
Y250001D01*
X320539Y236145D01*
X331145Y225540D01*
X345001Y219800D01*
X359999D01*
X373855Y225540D01*
X384460Y236145D01*
X384775Y236905D01*
X691028D01*
X696289Y224205D01*
X693040Y220955D01*
X687300Y207099D01*
Y192101D01*
X693040Y178245D01*
X703645Y167639D01*
X717501Y161900D01*
X732499D01*
X746355Y167639D01*
X756961Y178245D01*
X757441Y179405D01*
X1897725D01*
X1898039Y178645D01*
X1908645Y168040D01*
X1922501Y162300D01*
X1937499D01*
X1951355Y168040D01*
X1961961Y178645D01*
X1962275Y179405D01*
X2812825D01*
X2820707Y180972D01*
X2827389Y185437D01*
X2836668Y194716D01*
X2842501Y192300D01*
X2857499D01*
X2871355Y198039D01*
X2877720Y204404D01*
X3050688D01*
X3051773Y202987D01*
X3055365Y191704D01*
X3049437Y185776D01*
X3044972Y179095D01*
X3043404Y171213D01*
Y138585D01*
X3031500D01*
X3013864Y135077D01*
X2998913Y125087D01*
X2988923Y110136D01*
X2985415Y92500D01*
Y50000D01*
X2634585D01*
Y92500D01*
X2631077Y110136D01*
X2621087Y125087D01*
X2606136Y135077D01*
X2588500Y138585D01*
X2523500D01*
X2505864Y135077D01*
X2490913Y125087D01*
X2480923Y110136D01*
X2477415Y92500D01*
Y50000D01*
X2380585D01*
Y92500D01*
X2377077Y110136D01*
X2367087Y125087D01*
X2352136Y135077D01*
X2334500Y138585D01*
X2269500D01*
X2251864Y135077D01*
X2236913Y125087D01*
X2226923Y110136D01*
X2223415Y92500D01*
Y50000D01*
X2126585D01*
Y92500D01*
X2123077Y110136D01*
X2113087Y125087D01*
X2098136Y135077D01*
X2080500Y138585D01*
X2015500D01*
X1997864Y135077D01*
X1982913Y125087D01*
X1972923Y110136D01*
X1969415Y92500D01*
Y50000D01*
X1872585D01*
Y92500D01*
X1869077Y110136D01*
X1859087Y125087D01*
X1844136Y135077D01*
X1826500Y138585D01*
X1761500D01*
X1743864Y135077D01*
X1728913Y125087D01*
X1718923Y110136D01*
X1715415Y92500D01*
Y50000D01*
X20000D01*
Y2400000D01*
X1715415D01*
Y2347500D01*
X1718923Y2329864D01*
X1728913Y2314913D01*
X1743864Y2304922D01*
X1761500Y2301414D01*
X1826500D01*
X1844136Y2304922D01*
X1859087Y2314913D01*
X1869077Y2329864D01*
X1872585Y2347500D01*
Y2400000D01*
X1969415D01*
Y2347500D01*
X1972923Y2329864D01*
X1982913Y2314913D01*
X1997864Y2304922D01*
X2015500Y2301414D01*
X2080500D01*
X2098136Y2304922D01*
X2113087Y2314913D01*
X2123077Y2329864D01*
X2126585Y2347500D01*
Y2400000D01*
X2223415D01*
Y2347500D01*
X2226923Y2329864D01*
X2236913Y2314913D01*
X2251864Y2304922D01*
X2269500Y2301414D01*
X2334500D01*
X2352136Y2304922D01*
X2367087Y2314913D01*
X2377077Y2329864D01*
X2380585Y2347500D01*
Y2400000D01*
X2477415D01*
Y2347500D01*
X2480923Y2329864D01*
X2490913Y2314913D01*
X2505864Y2304922D01*
X2523500Y2301414D01*
X2588500D01*
X2606136Y2304922D01*
X2621087Y2314913D01*
X2631077Y2329864D01*
X2634585Y2347500D01*
Y2400000D01*
X2972466D01*
Y2347500D01*
X2976960Y2324908D01*
X2989757Y2305756D01*
X3008908Y2292959D01*
X3031500Y2288466D01*
X3051299D01*
Y2415001D01*
X3076699D01*
Y2288466D01*
D02*
G37*
G36*
X2823388Y256704D02*
X2818039Y251355D01*
X2812300Y237499D01*
Y228602D01*
X2804294Y220596D01*
X1962275D01*
X1961961Y221355D01*
X1951355Y231961D01*
X1937499Y237700D01*
X1922501D01*
X1908645Y231961D01*
X1898039Y221355D01*
X1897725Y220596D01*
X765963D01*
X763552Y224205D01*
X770340Y236905D01*
X1070729D01*
X1078611Y238472D01*
X1085293Y242937D01*
X1088145Y245789D01*
X1095601Y242700D01*
X1110599D01*
X1124455Y248439D01*
X1135061Y259045D01*
X1137281Y264404D01*
X2135380D01*
X2141745Y258039D01*
X2155601Y252300D01*
X2170599D01*
X2184456Y258039D01*
X2195061Y268645D01*
X2195376Y269404D01*
X2818128D01*
X2823388Y256704D01*
D02*
G37*
%LPC*%
G36*
X2882700Y2369292D02*
Y2332700D01*
X2919292D01*
X2912727Y2348549D01*
X2898549Y2362727D01*
X2882700Y2369292D01*
D02*
G37*
G36*
X2857300D02*
X2841451Y2362727D01*
X2827273Y2348549D01*
X2820708Y2332700D01*
X2857300D01*
Y2369292D01*
D02*
G37*
G36*
X2919292Y2307300D02*
X2882700D01*
Y2270708D01*
X2898549Y2277273D01*
X2912727Y2291451D01*
X2919292Y2307300D01*
D02*
G37*
G36*
X2857300D02*
X2820708D01*
X2827273Y2291451D01*
X2841451Y2277273D01*
X2857300Y2270708D01*
Y2307300D01*
D02*
G37*
G36*
X382700Y2189292D02*
Y2152700D01*
X419292D01*
X412727Y2168549D01*
X398549Y2182727D01*
X382700Y2189292D01*
D02*
G37*
G36*
X357300D02*
X341451Y2182727D01*
X327273Y2168549D01*
X320708Y2152700D01*
X357300D01*
Y2189292D01*
D02*
G37*
G36*
X419292Y2127300D02*
X382700D01*
Y2090708D01*
X398549Y2097273D01*
X412727Y2111451D01*
X419292Y2127300D01*
D02*
G37*
G36*
X357300D02*
X320708D01*
X327273Y2111451D01*
X341451Y2097273D01*
X357300Y2090708D01*
Y2127300D01*
D02*
G37*
G36*
X1452700Y2119292D02*
Y2082700D01*
X1489292D01*
X1482727Y2098549D01*
X1468549Y2112727D01*
X1452700Y2119292D01*
D02*
G37*
G36*
X1427300D02*
X1411451Y2112727D01*
X1397273Y2098549D01*
X1390708Y2082700D01*
X1427300D01*
Y2119292D01*
D02*
G37*
G36*
X1489292Y2057300D02*
X1452700D01*
Y2020708D01*
X1468549Y2027273D01*
X1482727Y2041451D01*
X1489292Y2057300D01*
D02*
G37*
G36*
X1427300D02*
X1390708D01*
X1397273Y2041451D01*
X1411451Y2027273D01*
X1427300Y2020708D01*
Y2057300D01*
D02*
G37*
G36*
X3127300Y2019292D02*
X3111451Y2012727D01*
X3097273Y1998549D01*
X3090708Y1982700D01*
X3127300D01*
Y2019292D01*
D02*
G37*
G36*
Y1957300D02*
X3090708D01*
X3097273Y1941451D01*
X3111451Y1927273D01*
X3127300Y1920708D01*
Y1957300D01*
D02*
G37*
G36*
X732499Y1912700D02*
X717501D01*
X703645Y1906961D01*
X693040Y1896355D01*
X687300Y1882499D01*
Y1867501D01*
X693040Y1853645D01*
X697708Y1848976D01*
Y1838349D01*
X685437Y1826078D01*
X680972Y1819396D01*
X679405Y1811514D01*
Y1780000D01*
X680972Y1772118D01*
X685437Y1765436D01*
X885437Y1565437D01*
X892118Y1560972D01*
X900000Y1559404D01*
X1062725D01*
X1063040Y1558645D01*
X1073645Y1548039D01*
X1087501Y1542300D01*
X1102499D01*
X1116355Y1548039D01*
X1126961Y1558645D01*
X1132700Y1572501D01*
Y1587499D01*
X1126961Y1601355D01*
X1116355Y1611960D01*
X1102499Y1617700D01*
X1087501D01*
X1073645Y1611960D01*
X1063040Y1601355D01*
X1062725Y1600595D01*
X908531D01*
X720596Y1788531D01*
Y1802983D01*
X732867Y1815254D01*
X737331Y1821936D01*
X738899Y1829818D01*
Y1839951D01*
X746355Y1843039D01*
X756961Y1853645D01*
X762700Y1867501D01*
Y1882499D01*
X756961Y1896355D01*
X746355Y1906961D01*
X732499Y1912700D01*
D02*
G37*
G36*
X2839999Y1905200D02*
X2825001D01*
X2811145Y1899461D01*
X2800539Y1888855D01*
X2794800Y1874999D01*
Y1860001D01*
X2800539Y1846145D01*
X2811145Y1835539D01*
X2811904Y1835225D01*
Y1810052D01*
X2791680Y1789828D01*
X2787216Y1783146D01*
X2785648Y1775264D01*
Y1713756D01*
X2787216Y1705874D01*
X2791680Y1699193D01*
X2973960Y1516914D01*
X2973960Y1516913D01*
X2980642Y1512449D01*
X2988523Y1510881D01*
X2988525Y1510881D01*
X3069992D01*
X3172615Y1408259D01*
X3172300Y1407499D01*
Y1392501D01*
X3178039Y1378645D01*
X3188645Y1368039D01*
X3202501Y1362300D01*
X3217499D01*
X3231355Y1368039D01*
X3241960Y1378645D01*
X3247700Y1392501D01*
Y1407499D01*
X3241960Y1421355D01*
X3231355Y1431961D01*
X3217499Y1437700D01*
X3202501D01*
X3201741Y1437385D01*
X3093087Y1546040D01*
X3086405Y1550504D01*
X3078523Y1552072D01*
X2997054D01*
X2826839Y1722287D01*
Y1766733D01*
X2847063Y1786957D01*
X2851528Y1793639D01*
X2853096Y1801521D01*
X2853096Y1801522D01*
Y1835225D01*
X2853855Y1835539D01*
X2864461Y1846145D01*
X2870200Y1860001D01*
Y1874999D01*
X2864461Y1888855D01*
X2853855Y1899461D01*
X2839999Y1905200D01*
D02*
G37*
G36*
X1767499Y1910200D02*
X1752501D01*
X1738645Y1904461D01*
X1728039Y1893855D01*
X1722300Y1879999D01*
Y1865001D01*
X1728039Y1851145D01*
X1738645Y1840539D01*
X1739404Y1840225D01*
Y1729439D01*
X1740972Y1721557D01*
X1745437Y1714875D01*
X2122037Y1338275D01*
X2121723Y1337515D01*
Y1322517D01*
X2127462Y1308661D01*
X2138067Y1298056D01*
X2151924Y1292316D01*
X2166922D01*
X2180778Y1298056D01*
X2191383Y1308661D01*
X2197123Y1322517D01*
Y1337515D01*
X2191383Y1351371D01*
X2180778Y1361977D01*
X2166922Y1367716D01*
X2151924D01*
X2151164Y1367401D01*
X1780596Y1737970D01*
Y1840225D01*
X1781355Y1840539D01*
X1791961Y1851145D01*
X1797700Y1865001D01*
Y1879999D01*
X1791961Y1893855D01*
X1781355Y1904461D01*
X1767499Y1910200D01*
D02*
G37*
G36*
X4092700Y219292D02*
Y182700D01*
X4129292D01*
X4122727Y198549D01*
X4108549Y212727D01*
X4092700Y219292D01*
D02*
G37*
G36*
X4067300D02*
X4051451Y212727D01*
X4037273Y198549D01*
X4030708Y182700D01*
X4067300D01*
Y219292D01*
D02*
G37*
G36*
X432700Y209292D02*
Y172700D01*
X469292D01*
X462727Y188549D01*
X448549Y202727D01*
X432700Y209292D01*
D02*
G37*
G36*
X407300D02*
X391451Y202727D01*
X377273Y188549D01*
X370708Y172700D01*
X407300D01*
Y209292D01*
D02*
G37*
G36*
X4129292Y157300D02*
X4092700D01*
Y120708D01*
X4108549Y127273D01*
X4122727Y141451D01*
X4129292Y157300D01*
D02*
G37*
G36*
X4067300D02*
X4030708D01*
X4037273Y141451D01*
X4051451Y127273D01*
X4067300Y120708D01*
Y157300D01*
D02*
G37*
G36*
X469292Y147300D02*
X432700D01*
Y110708D01*
X448549Y117273D01*
X462727Y131451D01*
X469292Y147300D01*
D02*
G37*
G36*
X407300D02*
X370708D01*
X377273Y131451D01*
X391451Y117273D01*
X407300Y110708D01*
Y147300D01*
D02*
G37*
%LPD*%
D15*
X1103100Y285000D02*
X2145000D01*
X717500Y1240000D02*
X1715000D01*
X3219111Y1580000D02*
Y1900180D01*
X2836250Y1241250D02*
X3903750D01*
X1765001Y1247501D02*
X1770000Y1252500D01*
X1722500Y1247501D02*
X1765001D01*
X2163100Y290000D02*
X3122500D01*
X2150000D02*
X2163100D01*
X2145000Y285000D02*
X2150000Y290000D01*
X718303Y1868303D02*
X725000Y1875000D01*
X718303Y1829818D02*
Y1868303D01*
X700000Y1811514D02*
X718303Y1829818D01*
X700000Y1780000D02*
Y1811514D01*
X2850000Y230000D02*
X2855000Y225000D01*
X3875000D01*
X2812825Y200000D02*
X2842825Y230000D01*
X1930000Y200000D02*
X2812825D01*
X3875000Y225000D02*
X3880000Y220000D01*
X2842825Y230000D02*
X2850000D01*
X700000Y1780000D02*
X900000Y1580000D01*
X1095000D01*
X3122500Y290000D02*
X3205000Y372500D01*
Y730000D01*
X725000Y199600D02*
X725400Y200000D01*
X352500Y257500D02*
X1070729D01*
X1093629Y280400D02*
X1103100D01*
X725400Y200000D02*
X1930000D01*
X1070729Y257500D02*
X1093629Y280400D01*
X2806244Y1775264D02*
X2832500Y1801521D01*
Y1867500D01*
X1760000Y1729439D02*
Y1872500D01*
X2988523Y1531476D02*
X3078523D01*
X3210000Y1400000D01*
X2806244Y1713756D02*
X2988523Y1531476D01*
X3903750Y1241250D02*
X3905000Y1240000D01*
Y998876D02*
Y1240000D01*
X3880000Y973876D02*
X3905000Y998876D01*
X3880000Y742223D02*
Y973876D01*
X1775000Y1247500D02*
X2830000D01*
X2836250Y1241250D01*
X1770000Y1252500D02*
X1775000Y1247500D01*
X1715000Y1240000D02*
X1722500Y1247501D01*
X2806244Y1713756D02*
Y1775264D01*
X1760000Y1729439D02*
X2159423Y1330016D01*
X3200000Y1919291D02*
Y2230000D01*
Y1919291D02*
X3219111Y1900180D01*
X3200000Y2230000D02*
X3240000Y2270000D01*
X3572000Y2410597D02*
Y2440000D01*
X3516403Y2355000D02*
X3572000Y2410597D01*
X3450490Y2355000D02*
X3516403D01*
X3365490Y2270000D02*
X3450490Y2355000D01*
X3240000Y2270000D02*
X3365490D01*
X3318000Y2394883D02*
Y2440000D01*
X3262403Y2339287D02*
X3318000Y2394883D01*
X3230500Y2339287D02*
X3262403D01*
X3111213Y2220000D02*
X3230500Y2339287D01*
X1880000Y2220000D02*
X3111213D01*
X3130000Y2080000D02*
Y2201213D01*
X3111213Y2220000D02*
X3130000Y2201213D01*
X840000Y2220000D02*
X1880000D01*
X3064000Y171213D02*
X3072787Y180000D01*
X3479434D02*
X3497335Y162100D01*
X3903983D01*
X3072787Y180000D02*
X3479434D01*
X3903983Y162100D02*
X3937900Y196017D01*
Y684323D01*
X3064000Y0D02*
Y171213D01*
X3880000Y742223D02*
X3937900Y684323D01*
D16*
X3572000Y2415000D02*
D03*
X3064000D02*
D03*
X3318000D02*
D03*
X2556000Y25000D02*
D03*
X2302000D02*
D03*
X2048000D02*
D03*
X1794000D02*
D03*
Y2415000D02*
D03*
X2048000D02*
D03*
X2302000D02*
D03*
X2556000D02*
D03*
X3318000Y25000D02*
D03*
X3064000D02*
D03*
D17*
X717500Y1240000D02*
D03*
X3219111Y1580000D02*
D03*
X3904600Y1240400D02*
D03*
X2835000Y1242500D02*
D03*
X1770000Y1252500D02*
D03*
X2163100Y290000D02*
D03*
X725000Y1875000D02*
D03*
X2850000Y230000D02*
D03*
X1095000Y1580000D02*
D03*
X3205000Y730000D02*
D03*
X725000Y199600D02*
D03*
X352500Y257500D02*
D03*
X1103100Y280400D02*
D03*
X2832500Y1867500D02*
D03*
X1760000Y1872500D02*
D03*
X1930000Y200000D02*
D03*
X3210000Y1400000D02*
D03*
X3140000Y1970000D02*
D03*
X3880000Y220000D02*
D03*
X370000Y2140000D02*
D03*
X1440000Y2070000D02*
D03*
X4080000Y170000D02*
D03*
X420000Y160000D02*
D03*
X2870000Y2320000D02*
D03*
X2159423Y1330016D02*
D03*
X3130000Y2080000D02*
D03*
X1880000Y2220000D02*
D03*
X840000D02*
D03*
%TF.MD5,ebdf6a60523b55211c50db4a7a49efac*%
M02*
