%TF.GenerationSoftware,Altium Limited,Altium Designer,23.5.1 (21)*%
G04 Layer_Color=128*
%FSLAX45Y45*%
%MOMM*%
%TF.SameCoordinates,90272B24-A97A-474C-8309-4AF10B7EB36B*%
%TF.FilePolarity,Positive*%
%TF.FileFunction,Drillmap*%
%TF.Part,Single*%
G01*
G75*
%TA.AperFunction,NonConductor*%
%ADD33C,0.12700*%
D33*
X3522000Y2440000D02*
X3622000D01*
X3572000Y2390000D02*
Y2490000D01*
X3014000Y2440000D02*
X3114000D01*
X3064000Y2390000D02*
Y2490000D01*
X3268000Y2440000D02*
X3368000D01*
X3318000Y2390000D02*
Y2490000D01*
X2506000Y0D02*
X2606000D01*
X2556000Y-50000D02*
Y50000D01*
X2252000Y0D02*
X2352000D01*
X2302000Y-50000D02*
Y50000D01*
X1998000Y0D02*
X2098000D01*
X2048000Y-50000D02*
Y50000D01*
X1744000Y0D02*
X1844000D01*
X1794000Y-50000D02*
Y50000D01*
X1744000Y2440000D02*
X1844000D01*
X1794000Y2390000D02*
Y2490000D01*
X1998000Y2440000D02*
X2098000D01*
X2048000Y2390000D02*
Y2490000D01*
X2252000Y2440000D02*
X2352000D01*
X2302000Y2390000D02*
Y2490000D01*
X2506000Y2440000D02*
X2606000D01*
X2556000Y2390000D02*
Y2490000D01*
X3268000Y0D02*
X3368000D01*
X3318000Y-50000D02*
Y50000D01*
X3014000Y0D02*
X3114000D01*
X3064000Y-50000D02*
Y50000D01*
X702500Y1240000D02*
X732500D01*
X717500Y1225000D02*
Y1255000D01*
X3204111Y1580000D02*
X3234111D01*
X3219111Y1565000D02*
Y1595000D01*
X3889600Y1240400D02*
X3919600D01*
X3904600Y1225400D02*
Y1255400D01*
X2820000Y1242500D02*
X2850000D01*
X2835000Y1227500D02*
Y1257500D01*
X1755000Y1252500D02*
X1785000D01*
X1770000Y1237500D02*
Y1267500D01*
X2148100Y290000D02*
X2178100D01*
X2163100Y275000D02*
Y305000D01*
X710000Y1875000D02*
X740000D01*
X725000Y1860000D02*
Y1890000D01*
X2835000Y230000D02*
X2865000D01*
X2850000Y215000D02*
Y245000D01*
X1080000Y1580000D02*
X1110000D01*
X1095000Y1565000D02*
Y1595000D01*
X3190000Y730000D02*
X3220000D01*
X3205000Y715000D02*
Y745000D01*
X710000Y199600D02*
X740000D01*
X725000Y184600D02*
Y214600D01*
X337500Y257500D02*
X367500D01*
X352500Y242500D02*
Y272500D01*
X1088100Y280400D02*
X1118100D01*
X1103100Y265400D02*
Y295400D01*
X2817500Y1867500D02*
X2847500D01*
X2832500Y1852500D02*
Y1882500D01*
X1745000Y1872500D02*
X1775000D01*
X1760000Y1857500D02*
Y1887500D01*
X1915000Y200000D02*
X1945000D01*
X1930000Y185000D02*
Y215000D01*
X3195000Y1400000D02*
X3225000D01*
X3210000Y1385000D02*
Y1415000D01*
X3125000Y1970000D02*
X3155000D01*
X3140000Y1955000D02*
Y1985000D01*
X3865000Y220000D02*
X3895000D01*
X3880000Y205000D02*
Y235000D01*
X355000Y2140000D02*
X385000D01*
X370000Y2125000D02*
Y2155000D01*
X1425000Y2070000D02*
X1455000D01*
X1440000Y2055000D02*
Y2085000D01*
X4065000Y170000D02*
X4095000D01*
X4080000Y155000D02*
Y185000D01*
X405000Y160000D02*
X435000D01*
X420000Y145000D02*
Y175000D01*
X2855000Y2320000D02*
X2885000D01*
X2870000Y2305000D02*
Y2335000D01*
X2144423Y1330016D02*
X2174423D01*
X2159423Y1315016D02*
Y1345016D01*
X3115000Y2080000D02*
X3145000D01*
X3130000Y2065000D02*
Y2095000D01*
X1865000Y2220000D02*
X1895000D01*
X1880000Y2205000D02*
Y2235000D01*
X825000Y2220000D02*
X855000D01*
X840000Y2205000D02*
Y2235000D01*
%TF.MD5,99660d10177c886342cafc524d8d857b*%
M02*
