%TF.GenerationSoftware,Altium Limited,Altium Designer,23.5.1 (21)*%
G04 Layer_Color=8388736*
%FSLAX45Y45*%
%MOMM*%
%TF.SameCoordinates,90272B24-A97A-474C-8309-4AF10B7EB36B*%
%TF.FilePolarity,Negative*%
%TF.FileFunction,Soldermask,Top*%
%TF.Part,Single*%
G01*
G75*
%TA.AperFunction,ConnectorPad*%
%ADD22R,1.80320X1.10320*%
%TA.AperFunction,SMDPad,CuDef*%
%ADD23R,1.80320X1.10320*%
%ADD24R,1.40320X1.70320*%
%ADD25R,1.10320X1.00320*%
%ADD26R,1.50320X1.20320*%
%TA.AperFunction,ComponentPad*%
G04:AMPARAMS|DCode=27|XSize=1.5032mm|YSize=2.2032mm|CornerRadius=0.4266mm|HoleSize=0mm|Usage=FLASHONLY|Rotation=180.000|XOffset=0mm|YOffset=0mm|HoleType=Round|Shape=RoundedRectangle|*
%AMROUNDEDRECTD27*
21,1,1.50320,1.35000,0,0,180.0*
21,1,0.65000,2.20320,0,0,180.0*
1,1,0.85320,-0.32500,0.67500*
1,1,0.85320,0.32500,0.67500*
1,1,0.85320,0.32500,-0.67500*
1,1,0.85320,-0.32500,-0.67500*
%
%ADD27ROUNDEDRECTD27*%
D22*
X200000Y2145000D02*
D03*
Y1855000D02*
D03*
D23*
X1250000D02*
D03*
Y2145000D02*
D03*
X2300000D02*
D03*
Y1855000D02*
D03*
X3360000Y2095000D02*
D03*
Y1805000D02*
D03*
D24*
X622677Y2050383D02*
D03*
X862677D02*
D03*
X1918495Y2057376D02*
D03*
X1678495D02*
D03*
X2739735D02*
D03*
X2979735D02*
D03*
X4010000Y2060000D02*
D03*
X3770000D02*
D03*
D25*
X980000Y1845000D02*
D03*
X780000Y1750000D02*
D03*
X980000Y1655000D02*
D03*
Y1505000D02*
D03*
X780000Y1410000D02*
D03*
X980000Y1315000D02*
D03*
X2040000Y1845000D02*
D03*
X1840000Y1750000D02*
D03*
X2040000Y1655000D02*
D03*
Y1505000D02*
D03*
X1840000Y1410000D02*
D03*
X2040000Y1315000D02*
D03*
X600000Y1845000D02*
D03*
X400000Y1750000D02*
D03*
X600000Y1655000D02*
D03*
X1640000Y1845000D02*
D03*
X1440000Y1750000D02*
D03*
X1640000Y1655000D02*
D03*
X600000Y1500000D02*
D03*
X400000Y1405000D02*
D03*
X600000Y1310000D02*
D03*
X980000Y1165000D02*
D03*
X780000Y1070000D02*
D03*
X980000Y975000D02*
D03*
X1640000Y1505000D02*
D03*
X1440000Y1410000D02*
D03*
X1640000Y1315000D02*
D03*
X2040000Y1165000D02*
D03*
X1840000Y1070000D02*
D03*
X2040000Y975000D02*
D03*
X600000Y1165000D02*
D03*
X400000Y1070000D02*
D03*
X600000Y975000D02*
D03*
X1640000Y1165000D02*
D03*
X1440000Y1070000D02*
D03*
X1640000Y975000D02*
D03*
X600000Y825000D02*
D03*
X400000Y730000D02*
D03*
X600000Y635000D02*
D03*
X980000Y825000D02*
D03*
X780000Y730000D02*
D03*
X980000Y635000D02*
D03*
X1640000Y825000D02*
D03*
X1440000Y730000D02*
D03*
X1640000Y635000D02*
D03*
X2040000Y825000D02*
D03*
X1840000Y730000D02*
D03*
X2040000Y635000D02*
D03*
X600000Y485000D02*
D03*
X400000Y390000D02*
D03*
X600000Y295000D02*
D03*
X980000Y485000D02*
D03*
X780000Y390000D02*
D03*
X980000Y295000D02*
D03*
X1640000Y485000D02*
D03*
X1440000Y390000D02*
D03*
X1640000Y295000D02*
D03*
X2040000Y485000D02*
D03*
X1840000Y390000D02*
D03*
X2040000Y295000D02*
D03*
X3102500Y1845000D02*
D03*
X2902500Y1750000D02*
D03*
X3102500Y1655000D02*
D03*
Y1505000D02*
D03*
X2902500Y1410000D02*
D03*
X3102500Y1315000D02*
D03*
X4160000Y1845000D02*
D03*
X3960000Y1750000D02*
D03*
X4160000Y1655000D02*
D03*
Y1505000D02*
D03*
X3960000Y1410000D02*
D03*
X4160000Y1315000D02*
D03*
X2712500Y1845000D02*
D03*
X2512500Y1750000D02*
D03*
X2712500Y1655000D02*
D03*
X3770000Y1845000D02*
D03*
X3570000Y1750000D02*
D03*
X3770000Y1655000D02*
D03*
X2712500Y1505000D02*
D03*
X2512500Y1410000D02*
D03*
X2712500Y1315000D02*
D03*
X3102500Y1165000D02*
D03*
X2902500Y1070000D02*
D03*
X3102500Y975000D02*
D03*
X3770000Y1505000D02*
D03*
X3570000Y1410000D02*
D03*
X3770000Y1315000D02*
D03*
X4160000Y1165000D02*
D03*
X3960000Y1070000D02*
D03*
X4160000Y975000D02*
D03*
X2712500Y1165000D02*
D03*
X2512500Y1070000D02*
D03*
X2712500Y975000D02*
D03*
X3770000Y1165000D02*
D03*
X3570000Y1070000D02*
D03*
X3770000Y975000D02*
D03*
X2712500Y825000D02*
D03*
X2512500Y730000D02*
D03*
X2712500Y635000D02*
D03*
X3102500Y825000D02*
D03*
X2902500Y730000D02*
D03*
X3102500Y635000D02*
D03*
X3770000Y825000D02*
D03*
X3570000Y730000D02*
D03*
X3770000Y635000D02*
D03*
X4160000Y825000D02*
D03*
X3960000Y730000D02*
D03*
X4160000Y635000D02*
D03*
X2712500Y485000D02*
D03*
X2512500Y390000D02*
D03*
X2712500Y295000D02*
D03*
X3102500Y485000D02*
D03*
X2902500Y390000D02*
D03*
X3102500Y295000D02*
D03*
X3768930Y485000D02*
D03*
X3568930Y389999D02*
D03*
X3768930Y294999D02*
D03*
X4159100Y485000D02*
D03*
X3959100Y390000D02*
D03*
X4159100Y295000D02*
D03*
D26*
X200000Y1460000D02*
D03*
Y1660000D02*
D03*
Y1270000D02*
D03*
Y1070000D02*
D03*
X1240000Y1460000D02*
D03*
Y1660000D02*
D03*
Y1270000D02*
D03*
Y1070000D02*
D03*
X200000Y880000D02*
D03*
Y680000D02*
D03*
Y490000D02*
D03*
Y290000D02*
D03*
X1240000Y880000D02*
D03*
Y680000D02*
D03*
Y490000D02*
D03*
Y290000D02*
D03*
X2302500Y1460000D02*
D03*
Y1660000D02*
D03*
Y1270000D02*
D03*
Y1070000D02*
D03*
X3360000Y1460000D02*
D03*
Y1660000D02*
D03*
Y1070000D02*
D03*
Y1270000D02*
D03*
X2302449Y877641D02*
D03*
Y677641D02*
D03*
X2302500Y490000D02*
D03*
Y290000D02*
D03*
X3360000Y880000D02*
D03*
Y680000D02*
D03*
Y490000D02*
D03*
Y290000D02*
D03*
D27*
X3572000Y2415000D02*
D03*
X3064000D02*
D03*
X3318000D02*
D03*
X2556000Y25000D02*
D03*
X2302000D02*
D03*
X2048000D02*
D03*
X1794000D02*
D03*
Y2415000D02*
D03*
X2048000D02*
D03*
X2302000D02*
D03*
X2556000D02*
D03*
X3318000Y25000D02*
D03*
X3064000D02*
D03*
%TF.MD5,16ebade359589128dfad48880e5f47e1*%
M02*
