%TF.GenerationSoftware,Altium Limited,Altium Designer,23.5.1 (21)*%
G04 Layer_Color=0*
%FSLAX45Y45*%
%MOMM*%
%TF.SameCoordinates,90272B24-A97A-474C-8309-4AF10B7EB36B*%
%TF.FilePolarity,Positive*%
%TF.FileFunction,Plated,1,2,PTH,Drill*%
%TF.Part,Single*%
G01*
G75*
%TA.AperFunction,ComponentDrill*%
%ADD30C,1.00000*%
%TA.AperFunction,ViaDrill,NotFilled*%
%ADD31C,0.30000*%
D30*
X3572000Y2440000D02*
D03*
X3064000D02*
D03*
X3318000D02*
D03*
X2556000Y0D02*
D03*
X2302000D02*
D03*
X2048000D02*
D03*
X1794000D02*
D03*
Y2440000D02*
D03*
X2048000D02*
D03*
X2302000D02*
D03*
X2556000D02*
D03*
X3318000Y0D02*
D03*
X3064000D02*
D03*
D31*
X717500Y1240000D02*
D03*
X3219111Y1580000D02*
D03*
X3904600Y1240400D02*
D03*
X2835000Y1242500D02*
D03*
X1770000Y1252500D02*
D03*
X2163100Y290000D02*
D03*
X725000Y1875000D02*
D03*
X2850000Y230000D02*
D03*
X1095000Y1580000D02*
D03*
X3205000Y730000D02*
D03*
X725000Y199600D02*
D03*
X352500Y257500D02*
D03*
X1103100Y280400D02*
D03*
X2832500Y1867500D02*
D03*
X1760000Y1872500D02*
D03*
X1930000Y200000D02*
D03*
X3210000Y1400000D02*
D03*
X3140000Y1970000D02*
D03*
X3880000Y220000D02*
D03*
X370000Y2140000D02*
D03*
X1440000Y2070000D02*
D03*
X4080000Y170000D02*
D03*
X420000Y160000D02*
D03*
X2870000Y2320000D02*
D03*
X2159423Y1330016D02*
D03*
X3130000Y2080000D02*
D03*
X1880000Y2220000D02*
D03*
X840000D02*
D03*
%TF.MD5,70339b922d7f2ea356f82f9a050fb7d2*%
M02*
