%TF.GenerationSoftware,Altium Limited,Altium Designer,23.5.1 (21)*%
G04 Layer_Color=8421504*
%FSLAX45Y45*%
%MOMM*%
%TF.SameCoordinates,90272B24-A97A-474C-8309-4AF10B7EB36B*%
%TF.FilePolarity,Positive*%
%TF.FileFunction,Paste,Top*%
%TF.Part,Single*%
G01*
G75*
%TA.AperFunction,ConnectorPad*%
%ADD10R,1.60000X0.90000*%
%TA.AperFunction,SMDPad,CuDef*%
%ADD11R,1.60000X0.90000*%
%ADD12R,1.20000X1.50000*%
%ADD13R,0.90000X0.80000*%
%ADD14R,1.30000X1.00000*%
D10*
X200000Y2145000D02*
D03*
Y1855000D02*
D03*
D11*
X1250000D02*
D03*
Y2145000D02*
D03*
X2300000D02*
D03*
Y1855000D02*
D03*
X3360000Y2095000D02*
D03*
Y1805000D02*
D03*
D12*
X622677Y2050383D02*
D03*
X862677D02*
D03*
X1918495Y2057376D02*
D03*
X1678495D02*
D03*
X2739735D02*
D03*
X2979735D02*
D03*
X4010000Y2060000D02*
D03*
X3770000D02*
D03*
D13*
X980000Y1845000D02*
D03*
X780000Y1750000D02*
D03*
X980000Y1655000D02*
D03*
Y1505000D02*
D03*
X780000Y1410000D02*
D03*
X980000Y1315000D02*
D03*
X2040000Y1845000D02*
D03*
X1840000Y1750000D02*
D03*
X2040000Y1655000D02*
D03*
Y1505000D02*
D03*
X1840000Y1410000D02*
D03*
X2040000Y1315000D02*
D03*
X600000Y1845000D02*
D03*
X400000Y1750000D02*
D03*
X600000Y1655000D02*
D03*
X1640000Y1845000D02*
D03*
X1440000Y1750000D02*
D03*
X1640000Y1655000D02*
D03*
X600000Y1500000D02*
D03*
X400000Y1405000D02*
D03*
X600000Y1310000D02*
D03*
X980000Y1165000D02*
D03*
X780000Y1070000D02*
D03*
X980000Y975000D02*
D03*
X1640000Y1505000D02*
D03*
X1440000Y1410000D02*
D03*
X1640000Y1315000D02*
D03*
X2040000Y1165000D02*
D03*
X1840000Y1070000D02*
D03*
X2040000Y975000D02*
D03*
X600000Y1165000D02*
D03*
X400000Y1070000D02*
D03*
X600000Y975000D02*
D03*
X1640000Y1165000D02*
D03*
X1440000Y1070000D02*
D03*
X1640000Y975000D02*
D03*
X600000Y825000D02*
D03*
X400000Y730000D02*
D03*
X600000Y635000D02*
D03*
X980000Y825000D02*
D03*
X780000Y730000D02*
D03*
X980000Y635000D02*
D03*
X1640000Y825000D02*
D03*
X1440000Y730000D02*
D03*
X1640000Y635000D02*
D03*
X2040000Y825000D02*
D03*
X1840000Y730000D02*
D03*
X2040000Y635000D02*
D03*
X600000Y485000D02*
D03*
X400000Y390000D02*
D03*
X600000Y295000D02*
D03*
X980000Y485000D02*
D03*
X780000Y390000D02*
D03*
X980000Y295000D02*
D03*
X1640000Y485000D02*
D03*
X1440000Y390000D02*
D03*
X1640000Y295000D02*
D03*
X2040000Y485000D02*
D03*
X1840000Y390000D02*
D03*
X2040000Y295000D02*
D03*
X3102500Y1845000D02*
D03*
X2902500Y1750000D02*
D03*
X3102500Y1655000D02*
D03*
Y1505000D02*
D03*
X2902500Y1410000D02*
D03*
X3102500Y1315000D02*
D03*
X4160000Y1845000D02*
D03*
X3960000Y1750000D02*
D03*
X4160000Y1655000D02*
D03*
Y1505000D02*
D03*
X3960000Y1410000D02*
D03*
X4160000Y1315000D02*
D03*
X2712500Y1845000D02*
D03*
X2512500Y1750000D02*
D03*
X2712500Y1655000D02*
D03*
X3770000Y1845000D02*
D03*
X3570000Y1750000D02*
D03*
X3770000Y1655000D02*
D03*
X2712500Y1505000D02*
D03*
X2512500Y1410000D02*
D03*
X2712500Y1315000D02*
D03*
X3102500Y1165000D02*
D03*
X2902500Y1070000D02*
D03*
X3102500Y975000D02*
D03*
X3770000Y1505000D02*
D03*
X3570000Y1410000D02*
D03*
X3770000Y1315000D02*
D03*
X4160000Y1165000D02*
D03*
X3960000Y1070000D02*
D03*
X4160000Y975000D02*
D03*
X2712500Y1165000D02*
D03*
X2512500Y1070000D02*
D03*
X2712500Y975000D02*
D03*
X3770000Y1165000D02*
D03*
X3570000Y1070000D02*
D03*
X3770000Y975000D02*
D03*
X2712500Y825000D02*
D03*
X2512500Y730000D02*
D03*
X2712500Y635000D02*
D03*
X3102500Y825000D02*
D03*
X2902500Y730000D02*
D03*
X3102500Y635000D02*
D03*
X3770000Y825000D02*
D03*
X3570000Y730000D02*
D03*
X3770000Y635000D02*
D03*
X4160000Y825000D02*
D03*
X3960000Y730000D02*
D03*
X4160000Y635000D02*
D03*
X2712500Y485000D02*
D03*
X2512500Y390000D02*
D03*
X2712500Y295000D02*
D03*
X3102500Y485000D02*
D03*
X2902500Y390000D02*
D03*
X3102500Y295000D02*
D03*
X3768930Y485000D02*
D03*
X3568930Y389999D02*
D03*
X3768930Y294999D02*
D03*
X4159100Y485000D02*
D03*
X3959100Y390000D02*
D03*
X4159100Y295000D02*
D03*
D14*
X200000Y1460000D02*
D03*
Y1660000D02*
D03*
Y1270000D02*
D03*
Y1070000D02*
D03*
X1240000Y1460000D02*
D03*
Y1660000D02*
D03*
Y1270000D02*
D03*
Y1070000D02*
D03*
X200000Y880000D02*
D03*
Y680000D02*
D03*
Y490000D02*
D03*
Y290000D02*
D03*
X1240000Y880000D02*
D03*
Y680000D02*
D03*
Y490000D02*
D03*
Y290000D02*
D03*
X2302500Y1460000D02*
D03*
Y1660000D02*
D03*
Y1270000D02*
D03*
Y1070000D02*
D03*
X3360000Y1460000D02*
D03*
Y1660000D02*
D03*
Y1070000D02*
D03*
Y1270000D02*
D03*
X2302449Y877641D02*
D03*
Y677641D02*
D03*
X2302500Y490000D02*
D03*
Y290000D02*
D03*
X3360000Y880000D02*
D03*
Y680000D02*
D03*
Y490000D02*
D03*
Y290000D02*
D03*
%TF.MD5,193675a4c32adbcfbfbaddf1e9b6cbcf*%
M02*
