%TF.GenerationSoftware,Altium Limited,Altium Designer,23.5.1 (21)*%
G04 Layer_Physical_Order=1*
G04 Layer_Color=255*
%FSLAX45Y45*%
%MOMM*%
%TF.SameCoordinates,90272B24-A97A-474C-8309-4AF10B7EB36B*%
%TF.FilePolarity,Positive*%
%TF.FileFunction,Copper,L1,Top,Signal*%
%TF.Part,Single*%
G01*
G75*
%TA.AperFunction,ConnectorPad*%
%ADD10R,1.60000X0.90000*%
%TA.AperFunction,SMDPad,CuDef*%
%ADD11R,1.60000X0.90000*%
%ADD12R,1.20000X1.50000*%
%ADD13R,0.90000X0.80000*%
%ADD14R,1.30000X1.00000*%
%TA.AperFunction,Conductor*%
%ADD15C,0.15000*%
%TA.AperFunction,ComponentPad*%
G04:AMPARAMS|DCode=16|XSize=1.3mm|YSize=2mm|CornerRadius=0.325mm|HoleSize=0mm|Usage=FLASHONLY|Rotation=180.000|XOffset=0mm|YOffset=0mm|HoleType=Round|Shape=RoundedRectangle|*
%AMROUNDEDRECTD16*
21,1,1.30000,1.35000,0,0,180.0*
21,1,0.65000,2.00000,0,0,180.0*
1,1,0.65000,-0.32500,0.67500*
1,1,0.65000,0.32500,0.67500*
1,1,0.65000,0.32500,-0.67500*
1,1,0.65000,-0.32500,-0.67500*
%
%ADD16ROUNDEDRECTD16*%
%TA.AperFunction,ViaPad*%
%ADD17C,0.50000*%
G36*
X2477415Y2347500D02*
X2480923Y2329864D01*
X2490913Y2314913D01*
X2505864Y2304922D01*
X2523500Y2301414D01*
X2588500D01*
X2606136Y2304922D01*
X2621087Y2314912D01*
X2622426Y2315044D01*
X2762033Y2175437D01*
X2768715Y2170972D01*
X2776597Y2169404D01*
X2776598Y2169404D01*
X3180617D01*
Y2017253D01*
X3168884Y2012392D01*
X3168549Y2012727D01*
X3152700Y2019292D01*
Y1970000D01*
Y1920708D01*
X3168549Y1927273D01*
X3168884Y1927608D01*
X3180617Y1922748D01*
Y1731287D01*
X3182185Y1723405D01*
X3186650Y1716724D01*
X3254204Y1649169D01*
Y1616183D01*
X3241504Y1610923D01*
X3240466Y1611960D01*
X3226610Y1617700D01*
X3211612D01*
X3197756Y1611960D01*
X3187151Y1601355D01*
X3181411Y1587499D01*
Y1572501D01*
X3187151Y1558645D01*
X3197756Y1548039D01*
X3198516Y1547725D01*
Y1466687D01*
X3200083Y1458805D01*
X3204548Y1452124D01*
X3206271Y1450400D01*
X3203904Y1442427D01*
X3201447Y1437264D01*
X3188645Y1431961D01*
X3178039Y1421355D01*
X3172300Y1407499D01*
Y1392501D01*
X3178039Y1378645D01*
X3182708Y1373976D01*
Y1361305D01*
X3172900Y1351497D01*
X3160200Y1356758D01*
Y1367700D01*
X3044800D01*
Y1262300D01*
X3160200D01*
Y1299404D01*
X3170529D01*
X3178411Y1300972D01*
X3185092Y1305437D01*
X3206025Y1326369D01*
X3213774Y1323863D01*
X3218191Y1320575D01*
Y1250000D01*
Y896105D01*
X3190437Y868350D01*
X3185972Y861669D01*
X3184404Y853787D01*
Y762275D01*
X3183645Y761961D01*
X3173039Y751355D01*
X3167300Y737499D01*
Y722501D01*
X3169737Y716616D01*
X3166382Y711595D01*
X3164815Y703713D01*
Y698489D01*
X3160199Y687700D01*
X3044800D01*
Y582300D01*
X3119404D01*
Y561068D01*
X3115200Y556869D01*
Y485000D01*
Y419600D01*
X3147104D01*
Y347700D01*
X3044800D01*
Y315596D01*
X2770200D01*
Y347700D01*
X2654800D01*
Y288686D01*
X2652675Y286245D01*
X2642100Y279882D01*
X2638513Y280596D01*
X2550000D01*
X2542118Y279028D01*
X2535437Y274563D01*
X2383803Y122930D01*
X2367453Y124540D01*
X2367087Y125087D01*
X2352136Y135077D01*
X2334500Y138585D01*
X2269500D01*
X2251864Y135077D01*
X2236913Y125087D01*
X2226923Y110136D01*
X2223415Y92500D01*
Y50000D01*
X2126585D01*
Y92500D01*
X2123077Y110136D01*
X2113087Y125087D01*
X2098136Y135077D01*
X2080500Y138585D01*
X2063596D01*
Y175901D01*
X2119764Y232069D01*
X2124228Y238751D01*
X2125796Y246633D01*
Y256028D01*
X2138496Y261289D01*
X2141745Y258039D01*
X2155601Y252300D01*
X2170599D01*
X2184456Y258039D01*
X2195061Y268645D01*
X2195376Y269404D01*
X2224800D01*
Y227300D01*
X2380199D01*
Y352700D01*
X2264561D01*
X2264027Y355382D01*
X2259563Y362063D01*
X2210596Y411031D01*
Y859404D01*
X2224749D01*
Y814941D01*
X2380149D01*
Y940341D01*
X2224749D01*
Y900596D01*
X2210596D01*
Y1049404D01*
X2224800D01*
Y1007300D01*
X2380199D01*
Y1132700D01*
X2249120D01*
X2237895Y1141368D01*
Y1207300D01*
X2380199D01*
Y1291904D01*
X2528567D01*
X2536449Y1293472D01*
X2543131Y1297937D01*
X2592263Y1347069D01*
X2596728Y1353751D01*
X2598296Y1361633D01*
Y1389404D01*
X2653787D01*
X2661668Y1390972D01*
X2668350Y1395437D01*
X2672815Y1402118D01*
X2674382Y1410000D01*
X2674083Y1411504D01*
X2682702Y1424204D01*
X2765867D01*
X2773749Y1425772D01*
X2780430Y1430236D01*
X2806898Y1456704D01*
X2826668D01*
X2844800Y1438573D01*
Y1357300D01*
X2917647D01*
X2922507Y1345567D01*
X2880436Y1303496D01*
X2875972Y1296814D01*
X2874404Y1288933D01*
Y1274372D01*
X2861704Y1269112D01*
X2856355Y1274460D01*
X2842499Y1280200D01*
X2827501D01*
X2813645Y1274460D01*
X2804779Y1265595D01*
X2796031D01*
X2770200Y1291427D01*
Y1367700D01*
X2654800D01*
Y1262300D01*
X2741073D01*
X2760273Y1243100D01*
X2755013Y1230400D01*
X2725200D01*
Y1165000D01*
X2712500D01*
Y1152300D01*
X2634847D01*
X2633732Y1150796D01*
X2572700D01*
X2564818Y1149228D01*
X2558137Y1144764D01*
X2536073Y1122700D01*
X2454800D01*
Y1017300D01*
X2570200D01*
Y1098573D01*
X2581231Y1109605D01*
X2625201D01*
X2644569Y1090236D01*
X2651251Y1085772D01*
X2659133Y1084204D01*
X2765867D01*
X2773749Y1085772D01*
X2780430Y1090236D01*
X2792263Y1102069D01*
X2796728Y1108751D01*
X2798296Y1116633D01*
Y1159404D01*
X2886213D01*
X2889404Y1160039D01*
X2900237Y1153363D01*
X2902104Y1151050D01*
Y1122700D01*
X2844800D01*
Y1017300D01*
X2960200D01*
Y1122700D01*
X2943295D01*
Y1261469D01*
X3009962Y1328136D01*
X3009963Y1328137D01*
X3014428Y1334819D01*
X3015996Y1342700D01*
X3015995Y1342701D01*
Y1431469D01*
X3036431Y1451904D01*
X3070000D01*
X3071989Y1452300D01*
X3160200D01*
Y1557700D01*
X3044800D01*
Y1493096D01*
X3027900D01*
X3020018Y1491528D01*
X3013337Y1487063D01*
X2997668Y1471394D01*
X2982450Y1472912D01*
X2981753Y1473441D01*
X2935630Y1519563D01*
X2928949Y1524028D01*
X2921067Y1525596D01*
X2770200D01*
Y1557700D01*
X2693028D01*
X2682028Y1567500D01*
X2682028Y1567501D01*
Y1595401D01*
X2688531Y1601904D01*
X3070000D01*
X3071989Y1602300D01*
X3160200D01*
Y1707700D01*
X3044800D01*
Y1643096D01*
X2770200D01*
Y1703804D01*
X2806001D01*
X2834569Y1675236D01*
X2841251Y1670772D01*
X2849132Y1669204D01*
X2955867D01*
X2963748Y1670772D01*
X2970430Y1675236D01*
X2982263Y1687070D01*
X2986728Y1693751D01*
X2988296Y1701633D01*
Y1737338D01*
X3010433D01*
X3018315Y1738906D01*
X3024996Y1743370D01*
X3073927Y1792300D01*
X3160200D01*
Y1897700D01*
X3044800D01*
Y1821427D01*
X3001902Y1778529D01*
X2976487D01*
X2972900Y1777816D01*
X2962324Y1784179D01*
X2960200Y1786619D01*
Y1802700D01*
X2885595D01*
Y1832825D01*
X2884028Y1840707D01*
X2879563Y1847388D01*
X2869248Y1857703D01*
X2870200Y1860001D01*
Y1874999D01*
X2864461Y1888855D01*
X2853855Y1899461D01*
X2839999Y1905200D01*
X2825001D01*
X2811145Y1899461D01*
X2800539Y1888855D01*
X2794800Y1874999D01*
Y1860001D01*
X2800539Y1846145D01*
X2811145Y1835539D01*
X2825001Y1829800D01*
X2838898D01*
X2844404Y1824294D01*
Y1782500D01*
X2835910Y1772695D01*
X2688309D01*
X2683274Y1784301D01*
X2689777Y1792300D01*
X2770200D01*
Y1897700D01*
X2654800D01*
Y1816427D01*
X2638768Y1800395D01*
X2604798D01*
X2573130Y1832063D01*
X2566449Y1836528D01*
X2558567Y1838096D01*
X2392700D01*
Y1899605D01*
X2602559D01*
X2610441Y1901172D01*
X2617123Y1905637D01*
X2680766Y1969281D01*
X2687235D01*
X2689225Y1969677D01*
X2812435D01*
Y2145076D01*
X2667036D01*
Y2009438D01*
X2664354Y2008904D01*
X2657672Y2004440D01*
X2657672Y2004439D01*
X2594028Y1940796D01*
X2220384D01*
X2220382Y1940796D01*
X2211633D01*
X2203751Y1939228D01*
X2197070Y1934764D01*
X2185236Y1922931D01*
X2180772Y1916249D01*
X2179204Y1908367D01*
Y1801633D01*
X2180772Y1793751D01*
X2185236Y1787070D01*
X2197070Y1775236D01*
X2203751Y1770772D01*
X2210345Y1769461D01*
X2214569Y1765236D01*
X2221251Y1760772D01*
X2229132Y1759204D01*
X2454800D01*
Y1720302D01*
X2447500Y1710596D01*
X2380199D01*
Y1722700D01*
X2224800D01*
Y1597300D01*
X2380199D01*
Y1669404D01*
X2446694D01*
X2447700Y1669204D01*
X2477833D01*
X2480147Y1667337D01*
X2486823Y1656504D01*
X2486188Y1653313D01*
Y1462700D01*
X2457379D01*
Y1548713D01*
X2455811Y1556595D01*
X2451347Y1563277D01*
X2442560Y1572063D01*
X2435878Y1576528D01*
X2427997Y1578096D01*
X2165596D01*
Y2214469D01*
X2255355Y2304228D01*
X2269500Y2301414D01*
X2334500D01*
X2352136Y2304922D01*
X2367087Y2314913D01*
X2377077Y2329864D01*
X2380585Y2347500D01*
Y2400000D01*
X2477415D01*
Y2347500D01*
D02*
G37*
G36*
X1969415D02*
X1972923Y2329864D01*
X1982913Y2314913D01*
X1997864Y2304922D01*
X2015500Y2301414D01*
X2019404D01*
Y1913987D01*
X2020118Y1910400D01*
X2013755Y1899824D01*
X2011314Y1897700D01*
X1982300D01*
Y1821427D01*
X1933370Y1772497D01*
X1928905Y1765815D01*
X1927338Y1757933D01*
Y1752897D01*
X1909433Y1734992D01*
X1897700Y1739853D01*
Y1802700D01*
X1811427D01*
X1785583Y1828544D01*
X1781356Y1840540D01*
X1791961Y1851145D01*
X1797700Y1865001D01*
Y1879999D01*
X1791961Y1893855D01*
X1781355Y1904461D01*
X1767499Y1910200D01*
X1752501D01*
X1738645Y1904461D01*
X1728039Y1893855D01*
X1722300Y1879999D01*
Y1865001D01*
X1728039Y1851145D01*
X1738645Y1840539D01*
X1739404Y1840225D01*
Y1825000D01*
X1740972Y1817118D01*
X1745437Y1810437D01*
X1772578Y1783296D01*
X1767317Y1770596D01*
X1513987D01*
X1510400Y1769882D01*
X1499824Y1776245D01*
X1497700Y1778686D01*
Y1802700D01*
X1382300D01*
Y1800596D01*
X1342700D01*
Y1824405D01*
X1582300D01*
Y1792300D01*
X1697700D01*
Y1897700D01*
X1582300D01*
Y1865596D01*
X1342700D01*
Y1903820D01*
X1545535D01*
X1553417Y1905388D01*
X1560098Y1909853D01*
X1619526Y1969281D01*
X1625995D01*
X1627985Y1969677D01*
X1751195D01*
Y2145076D01*
X1605795D01*
Y2009438D01*
X1603114Y2008904D01*
X1596432Y2004440D01*
X1537004Y1945012D01*
X1166254D01*
X1166253Y1945012D01*
X1158371Y1943444D01*
X1151690Y1938979D01*
X1148288Y1935578D01*
X1147070Y1934764D01*
X1135236Y1922931D01*
X1130772Y1916249D01*
X1129204Y1908367D01*
Y1801633D01*
X1129404Y1800627D01*
Y1800268D01*
X1130972Y1792387D01*
X1135437Y1785705D01*
X1155705Y1765437D01*
X1162387Y1760972D01*
X1170268Y1759404D01*
X1382300D01*
Y1710395D01*
X1351006D01*
X1350000Y1710596D01*
X1317700D01*
Y1722700D01*
X1162300D01*
Y1597300D01*
X1317700D01*
Y1669404D01*
X1349194D01*
X1350200Y1669204D01*
X1411050D01*
X1413363Y1667337D01*
X1420039Y1656504D01*
X1419404Y1653313D01*
Y1462700D01*
X1382300D01*
Y1357300D01*
X1455147D01*
X1460007Y1345567D01*
X1445036Y1330596D01*
X1317700D01*
Y1332700D01*
X1163296D01*
X1162300Y1332700D01*
X1150596Y1335104D01*
Y1377086D01*
X1157464Y1383954D01*
X1161928Y1390636D01*
X1163254Y1397300D01*
X1317700D01*
Y1522700D01*
X1162300D01*
Y1480595D01*
X1151687D01*
X1143805Y1479028D01*
X1137124Y1474563D01*
X1128337Y1465776D01*
X1128296Y1465715D01*
X1115596Y1469567D01*
Y1547725D01*
X1116355Y1548039D01*
X1126961Y1558645D01*
X1132700Y1572501D01*
Y1587499D01*
X1126961Y1601355D01*
X1116355Y1611960D01*
X1102499Y1617700D01*
X1087501D01*
X1073645Y1611960D01*
X1063040Y1601355D01*
X1057300Y1587499D01*
Y1572501D01*
X1063040Y1558645D01*
X1073645Y1548039D01*
X1074405Y1547725D01*
Y1433531D01*
X1008573Y1367700D01*
X922300D01*
Y1262300D01*
X1037700D01*
Y1338573D01*
X1101885Y1402758D01*
X1111750Y1394662D01*
X1110972Y1393499D01*
X1109404Y1385617D01*
Y1061213D01*
Y871213D01*
Y318100D01*
X1095601D01*
X1081745Y312361D01*
X1071140Y301755D01*
X1065400Y287899D01*
Y272901D01*
X1071140Y259045D01*
X1081745Y248439D01*
X1095601Y242700D01*
X1110599D01*
X1124455Y248439D01*
X1135061Y259045D01*
X1135210Y259404D01*
X1162300D01*
Y227300D01*
X1317700D01*
Y352700D01*
X1162300D01*
Y352700D01*
X1150596Y355104D01*
Y424896D01*
X1162300Y427300D01*
X1163296Y427300D01*
X1315483D01*
X1350140Y392642D01*
Y345697D01*
X1351708Y337815D01*
X1356173Y331133D01*
X1372069Y315236D01*
X1378751Y310772D01*
X1386633Y309204D01*
X1493367D01*
X1501249Y310772D01*
X1507930Y315236D01*
X1522263Y329569D01*
X1526728Y336251D01*
X1528295Y344132D01*
Y499169D01*
X1557867Y528740D01*
X1569600Y523880D01*
Y497700D01*
X1627300D01*
Y550400D01*
X1596120D01*
X1591260Y562133D01*
X1611427Y582300D01*
X1697700D01*
Y614404D01*
X1740000D01*
X1747881Y615972D01*
X1754563Y620437D01*
X1802802Y668676D01*
X1804653Y669493D01*
X1809005Y668727D01*
X1819404Y659800D01*
Y442700D01*
X1782300D01*
Y337300D01*
X1897700D01*
Y442700D01*
X1860595D01*
Y649204D01*
X1893367D01*
X1901249Y650772D01*
X1907930Y655236D01*
X1919763Y667070D01*
X1924228Y673751D01*
X1925796Y681633D01*
Y691469D01*
X1960908Y726581D01*
X1964131Y727222D01*
X1970813Y731687D01*
X2011427Y772300D01*
X2097700D01*
Y877700D01*
X2058686D01*
X2056245Y879825D01*
X2049882Y890400D01*
X2050596Y893987D01*
Y922300D01*
X2097700D01*
Y1027700D01*
X1982300D01*
Y922300D01*
X2009404D01*
Y905796D01*
X1986633D01*
X1978751Y904228D01*
X1972069Y899764D01*
X1960236Y887931D01*
X1955772Y881249D01*
X1954204Y873367D01*
Y817304D01*
X1919996Y783096D01*
X1872500D01*
X1870510Y782700D01*
X1782300D01*
Y706427D01*
X1731469Y655596D01*
X1697700D01*
Y687700D01*
X1623420D01*
X1618560Y699433D01*
X1654563Y735437D01*
X1659028Y742118D01*
X1660596Y750000D01*
Y772300D01*
X1697700D01*
Y877700D01*
X1582300D01*
Y772300D01*
X1619404D01*
Y758531D01*
X1565437Y704563D01*
X1562552Y700246D01*
X1560236Y697931D01*
X1555772Y691249D01*
X1554204Y683367D01*
Y623331D01*
X1465436Y534563D01*
X1460972Y527882D01*
X1459404Y520000D01*
Y442700D01*
X1382300D01*
Y435330D01*
X1370567Y430469D01*
X1333276Y467760D01*
X1326595Y472224D01*
X1318713Y473792D01*
X1317700D01*
Y552700D01*
X1163296D01*
X1162300Y552700D01*
X1150596Y555104D01*
Y614896D01*
X1162300Y617300D01*
X1163296Y617300D01*
X1317700D01*
Y659404D01*
X1385000D01*
X1392881Y660972D01*
X1399563Y665437D01*
X1411427Y677300D01*
X1497700D01*
Y709404D01*
X1531213D01*
X1539095Y710972D01*
X1545776Y715437D01*
X1554563Y724224D01*
X1559028Y730905D01*
X1560596Y738787D01*
Y881469D01*
X1574781Y895654D01*
X1576250D01*
X1584132Y897222D01*
X1590813Y901687D01*
X1611427Y922300D01*
X1697700D01*
Y1027700D01*
X1582300D01*
Y951427D01*
X1567719Y936845D01*
X1566250D01*
X1558368Y935278D01*
X1551687Y930813D01*
X1525437Y904563D01*
X1520972Y897882D01*
X1519404Y890000D01*
Y750596D01*
X1497700D01*
Y782700D01*
X1382300D01*
Y706427D01*
X1376469Y700596D01*
X1317700D01*
Y742700D01*
X1163296D01*
X1162300Y742700D01*
X1150596Y745104D01*
Y814896D01*
X1162300Y817300D01*
Y817300D01*
X1317700D01*
Y942700D01*
X1162300D01*
Y942700D01*
X1150596Y945104D01*
Y1004896D01*
X1162300Y1007300D01*
Y1007300D01*
X1317700D01*
Y1132700D01*
X1162300D01*
Y1132700D01*
X1150596Y1135104D01*
Y1204896D01*
X1162300Y1207300D01*
X1163296Y1207300D01*
X1317700D01*
Y1289404D01*
X1453567D01*
X1461449Y1290972D01*
X1468131Y1295437D01*
X1519764Y1347069D01*
X1524228Y1353751D01*
X1525796Y1361633D01*
Y1389404D01*
X1570000D01*
X1577882Y1390972D01*
X1584563Y1395437D01*
X1589028Y1402118D01*
X1590595Y1410000D01*
Y1424204D01*
X1693367D01*
X1701249Y1425772D01*
X1707931Y1430236D01*
X1737098Y1459404D01*
X1761469D01*
X1782300Y1438573D01*
Y1357300D01*
X1820213D01*
X1825473Y1344600D01*
X1815437Y1334563D01*
X1810972Y1327882D01*
X1809404Y1320000D01*
Y1284372D01*
X1796704Y1279111D01*
X1791355Y1284460D01*
X1777499Y1290200D01*
X1762501D01*
X1748645Y1284460D01*
X1738039Y1273855D01*
X1737725Y1273095D01*
X1716031D01*
X1697700Y1291426D01*
Y1367700D01*
X1582300D01*
Y1262300D01*
X1668573D01*
X1687773Y1243100D01*
X1682513Y1230400D01*
X1652701D01*
Y1165000D01*
X1640001D01*
Y1152300D01*
X1569600D01*
Y1138963D01*
X1488368D01*
X1488367Y1138963D01*
X1480485Y1137395D01*
X1473804Y1132930D01*
X1463573Y1122700D01*
X1382300D01*
Y1017300D01*
X1497700D01*
Y1097771D01*
X1564534D01*
X1572069Y1090236D01*
X1578751Y1085772D01*
X1586633Y1084204D01*
X1693367D01*
X1701249Y1085772D01*
X1707931Y1090236D01*
X1719764Y1102069D01*
X1724228Y1108751D01*
X1725796Y1116633D01*
Y1167238D01*
X1821213D01*
X1829095Y1168806D01*
X1835776Y1173270D01*
X1836704Y1174198D01*
X1849404Y1168937D01*
Y1122700D01*
X1782300D01*
Y1017300D01*
X1897700D01*
Y1122700D01*
X1890595D01*
Y1292521D01*
X1895858D01*
X1903739Y1294089D01*
X1910421Y1298553D01*
X1947463Y1335596D01*
X1951928Y1342277D01*
X1953496Y1350159D01*
X1953496Y1350160D01*
Y1431469D01*
X1973931Y1451904D01*
X2007500D01*
X2009490Y1452300D01*
X2097700D01*
Y1557700D01*
X1982300D01*
Y1493096D01*
X1965400D01*
X1957519Y1491528D01*
X1950837Y1487063D01*
X1935168Y1471394D01*
X1919763Y1472931D01*
X1868131Y1524563D01*
X1861449Y1529028D01*
X1853567Y1530596D01*
X1697700D01*
Y1557700D01*
X1630187D01*
X1620595Y1570000D01*
Y1594404D01*
X1995000D01*
X2002881Y1595972D01*
X2009563Y1600436D01*
X2011427Y1602300D01*
X2097700D01*
Y1685510D01*
X2098096Y1687500D01*
Y1760402D01*
X2111704Y1774010D01*
X2124404Y1768750D01*
Y1566287D01*
X2125972Y1558405D01*
X2130437Y1551724D01*
X2139224Y1542937D01*
X2145905Y1538472D01*
X2153787Y1536904D01*
X2416188D01*
Y1333096D01*
X2345000D01*
X2343010Y1332700D01*
X2237918D01*
Y1384245D01*
X2237919Y1384247D01*
X2237848Y1384600D01*
X2247007Y1397300D01*
X2380199D01*
Y1522700D01*
X2224800D01*
Y1480595D01*
X2215000D01*
X2207118Y1479028D01*
X2200436Y1474563D01*
X2191649Y1465776D01*
X2187185Y1459095D01*
X2185617Y1451213D01*
Y1395357D01*
X2187185Y1387475D01*
X2191649Y1380793D01*
X2196721Y1375722D01*
X2195553Y1363502D01*
X2184027Y1358728D01*
X2180778Y1361977D01*
X2166922Y1367716D01*
X2151924D01*
X2138067Y1361977D01*
X2127462Y1351371D01*
X2121723Y1337515D01*
Y1335595D01*
X2097700D01*
Y1367700D01*
X1982300D01*
Y1262300D01*
X2097700D01*
Y1294404D01*
X2134936D01*
X2142817Y1295972D01*
X2142924Y1296044D01*
X2151924Y1292316D01*
X2166922D01*
X2180778Y1298056D01*
X2184004Y1301281D01*
X2196704Y1296021D01*
Y1149899D01*
X2175437Y1128632D01*
X2170972Y1121950D01*
X2169404Y1114068D01*
Y1065000D01*
Y871213D01*
Y402500D01*
X2170972Y394618D01*
X2175437Y387936D01*
X2224404Y338969D01*
Y332500D01*
X2224800Y330510D01*
Y310596D01*
X2195376D01*
X2195061Y311355D01*
X2184456Y321960D01*
X2170599Y327700D01*
X2155601D01*
X2141745Y321960D01*
X2138496Y318711D01*
X2125796Y323972D01*
Y343367D01*
X2124228Y351249D01*
X2119764Y357930D01*
X2107931Y369764D01*
X2101249Y374228D01*
X2093367Y375796D01*
X1997318D01*
X1995395Y377718D01*
Y419600D01*
X2027299D01*
Y485001D01*
Y556870D01*
X2023096Y561068D01*
Y582300D01*
X2097700D01*
Y687700D01*
X1982300D01*
Y604490D01*
X1981904Y602500D01*
Y569598D01*
X1960236Y547931D01*
X1955772Y541249D01*
X1954204Y533367D01*
Y369187D01*
X1955772Y361306D01*
X1960236Y354624D01*
X1974223Y340638D01*
X1974223Y340637D01*
X1980905Y336172D01*
X1982300Y335895D01*
Y315596D01*
X1697700D01*
Y347700D01*
X1582300D01*
Y242300D01*
X1697700D01*
Y274404D01*
X1741469D01*
X1830436Y185437D01*
X1837118Y180972D01*
X1845000Y179405D01*
X1897725D01*
X1898039Y178645D01*
X1908645Y168040D01*
X1922501Y162300D01*
X1937499D01*
X1951355Y168040D01*
X1961961Y178645D01*
X1967700Y192501D01*
Y207499D01*
X1961961Y221355D01*
X1951355Y231961D01*
X1937499Y237700D01*
X1922501D01*
X1908645Y231961D01*
X1898039Y221355D01*
X1897725Y220596D01*
X1853531D01*
X1811455Y262671D01*
X1816316Y274404D01*
X1982300D01*
Y242300D01*
X2055147D01*
X2060008Y230567D01*
X2028437Y198996D01*
X2023972Y192314D01*
X2022404Y184432D01*
Y138585D01*
X2015500D01*
X1997864Y135077D01*
X1982913Y125087D01*
X1972923Y110136D01*
X1969415Y92500D01*
Y50000D01*
X1872585D01*
Y92500D01*
X1869077Y110136D01*
X1859087Y125087D01*
X1844136Y135077D01*
X1826500Y138585D01*
X1809596D01*
Y147500D01*
X1808028Y155381D01*
X1803563Y162063D01*
X1794776Y170850D01*
X1788095Y175315D01*
X1780213Y176882D01*
X1217266D01*
X1209384Y175315D01*
X1202703Y170850D01*
X1202702Y170849D01*
X1194148Y162296D01*
X758972D01*
X753711Y174996D01*
X756961Y178245D01*
X762700Y192101D01*
Y207099D01*
X756961Y220955D01*
X746355Y231561D01*
X732499Y237300D01*
X725898D01*
X722690Y240508D01*
Y254476D01*
X721253Y261704D01*
X721212Y262645D01*
X724867Y274404D01*
X922300D01*
Y242300D01*
X1037700D01*
Y347700D01*
X935479D01*
X928690Y360400D01*
X929028Y360905D01*
X930596Y368787D01*
Y419600D01*
X967300D01*
Y485000D01*
Y550400D01*
X942487D01*
X937227Y563100D01*
X956427Y582300D01*
X1037700D01*
Y687700D01*
X922300D01*
Y606427D01*
X895437Y579563D01*
X890972Y572882D01*
X889404Y565000D01*
Y377318D01*
X862482Y350395D01*
X837700D01*
Y442700D01*
X800595D01*
Y649204D01*
X833367D01*
X841249Y650772D01*
X847930Y655236D01*
X859764Y667070D01*
X864228Y673751D01*
X865796Y681633D01*
Y686669D01*
X951427Y772300D01*
X1037700D01*
Y877700D01*
X1008686D01*
X1006245Y879825D01*
X999882Y890400D01*
X1000596Y893987D01*
Y922300D01*
X1037700D01*
Y1027700D01*
X922300D01*
Y922300D01*
X959404D01*
Y905796D01*
X926633D01*
X918751Y904228D01*
X912070Y899764D01*
X900236Y887931D01*
X895772Y881249D01*
X894204Y873367D01*
Y828531D01*
X848769Y783096D01*
X807500D01*
X805510Y782700D01*
X722300D01*
Y706427D01*
X671469Y655596D01*
X657700D01*
Y687700D01*
X573420D01*
X568560Y699433D01*
X614563Y745436D01*
X614563Y745437D01*
X619028Y752118D01*
X620596Y760000D01*
X620596Y760001D01*
Y772300D01*
X657700D01*
Y877700D01*
X542300D01*
Y772300D01*
X565213D01*
X570474Y759600D01*
X515437Y704563D01*
X510972Y697882D01*
X509404Y690000D01*
Y618531D01*
X385437Y494563D01*
X380972Y487881D01*
X379404Y480000D01*
Y442700D01*
X342300D01*
Y408420D01*
X330567Y403560D01*
X277700Y456427D01*
Y552700D01*
X123296D01*
X122300Y552700D01*
X110595Y555103D01*
Y614897D01*
X122300Y617300D01*
X123296Y617300D01*
X277700D01*
Y659404D01*
X345000D01*
X352881Y660972D01*
X359563Y665437D01*
X371427Y677300D01*
X457700D01*
Y709404D01*
X480000D01*
X487882Y710972D01*
X494563Y715437D01*
X504563Y725436D01*
X504563Y725437D01*
X509028Y732118D01*
X510596Y740000D01*
X510596Y740001D01*
Y911469D01*
X521031Y921904D01*
X567500D01*
X569490Y922300D01*
X657700D01*
Y1027700D01*
X542300D01*
Y963095D01*
X512500D01*
X504618Y961528D01*
X497937Y957063D01*
X475437Y934563D01*
X470972Y927882D01*
X469404Y920000D01*
Y785103D01*
X457700Y782700D01*
Y782700D01*
X342300D01*
Y706427D01*
X336469Y700596D01*
X277700D01*
Y742700D01*
X123296D01*
X122300Y742700D01*
X110595Y745103D01*
Y814897D01*
X122300Y817300D01*
Y817300D01*
X277700D01*
Y942700D01*
X122300D01*
Y942700D01*
X110595Y945103D01*
Y1004897D01*
X122300Y1007300D01*
Y1007300D01*
X277700D01*
Y1132700D01*
X122300D01*
Y1132700D01*
X110595Y1135103D01*
Y1204897D01*
X122300Y1207300D01*
X123296Y1207300D01*
X277700D01*
Y1291904D01*
X292500D01*
X300382Y1293472D01*
X307063Y1297937D01*
X308531Y1299404D01*
X428567D01*
X436449Y1300972D01*
X443130Y1305437D01*
X479763Y1342069D01*
X479763Y1342069D01*
X484228Y1348751D01*
X485796Y1356633D01*
X485796Y1356634D01*
Y1389404D01*
X530000D01*
X537882Y1390972D01*
X544563Y1395437D01*
X549028Y1402118D01*
X550596Y1410000D01*
Y1419204D01*
X653367D01*
X661249Y1420772D01*
X667930Y1425236D01*
X694398Y1451704D01*
X709169D01*
X722300Y1438573D01*
Y1357300D01*
X751314D01*
X753755Y1355176D01*
X760118Y1344600D01*
X759404Y1341013D01*
Y1268009D01*
X746704Y1264112D01*
X738855Y1271961D01*
X724999Y1277700D01*
X710001D01*
X696145Y1271961D01*
X689779Y1265595D01*
X678531D01*
X657700Y1286427D01*
Y1362700D01*
X542300D01*
Y1257300D01*
X628573D01*
X642773Y1243100D01*
X637513Y1230400D01*
X612701D01*
Y1165000D01*
X600001D01*
Y1152300D01*
X522348D01*
X521232Y1150796D01*
X460200D01*
X452319Y1149228D01*
X445637Y1144764D01*
X423573Y1122700D01*
X342300D01*
Y1017300D01*
X457700D01*
Y1098573D01*
X468731Y1109605D01*
X512701D01*
X532070Y1090236D01*
X538751Y1085772D01*
X546633Y1084204D01*
X653367D01*
X661249Y1085772D01*
X667931Y1090236D01*
X679764Y1102069D01*
X684228Y1108751D01*
X685796Y1116633D01*
Y1156904D01*
X771213D01*
X779095Y1158472D01*
X785776Y1162937D01*
X786704Y1163865D01*
X799404Y1158604D01*
Y1122700D01*
X722300D01*
Y1017300D01*
X837700D01*
Y1100131D01*
X839028Y1102118D01*
X840596Y1110000D01*
X840595Y1110001D01*
Y1301504D01*
X844841D01*
X852722Y1303072D01*
X859404Y1307536D01*
X887464Y1335596D01*
X891928Y1342277D01*
X893496Y1350159D01*
Y1441469D01*
X903931Y1451904D01*
X947500D01*
X949490Y1452300D01*
X1037700D01*
Y1557700D01*
X922300D01*
Y1493096D01*
X895400D01*
X887519Y1491528D01*
X880837Y1487063D01*
X866082Y1472308D01*
X859764Y1472931D01*
X818131Y1514563D01*
X811449Y1519028D01*
X803567Y1520596D01*
X657700D01*
Y1552700D01*
X584441D01*
X581593Y1555687D01*
X576113Y1565400D01*
X577028Y1570000D01*
X577028Y1570001D01*
Y1601904D01*
X947500D01*
X949490Y1602300D01*
X1037700D01*
Y1683573D01*
X1064563Y1710436D01*
X1064563Y1710437D01*
X1069028Y1717118D01*
X1070596Y1725000D01*
Y2378191D01*
X1715415D01*
Y2347500D01*
X1718923Y2329864D01*
X1728913Y2314913D01*
X1743864Y2304922D01*
X1761500Y2301414D01*
X1826500D01*
X1844136Y2304922D01*
X1859087Y2314913D01*
X1869077Y2329864D01*
X1872585Y2347500D01*
Y2400000D01*
X1969415D01*
Y2347500D01*
D02*
G37*
G36*
X3076699Y2288466D02*
X3096500D01*
X3119092Y2292959D01*
X3138243Y2305756D01*
X3151040Y2324908D01*
X3155534Y2347500D01*
Y2400000D01*
X3239415D01*
Y2347500D01*
X3242923Y2329864D01*
X3252913Y2314913D01*
X3267864Y2304922D01*
X3285500Y2301414D01*
X3350500D01*
X3368136Y2304922D01*
X3383087Y2314913D01*
X3393077Y2329864D01*
X3393981Y2334404D01*
X3430979D01*
X3525373Y2240010D01*
X3525374Y2240009D01*
X3532056Y2235545D01*
X3539937Y2233977D01*
X3539939Y2233977D01*
X3898109D01*
X3969404Y2162682D01*
Y2147700D01*
X3937300D01*
Y1972300D01*
X4082700D01*
Y2147700D01*
X4010595D01*
Y2171213D01*
X4009028Y2179095D01*
X4004563Y2185776D01*
X3921203Y2269136D01*
X3914522Y2273601D01*
X3906640Y2275168D01*
X3548468D01*
X3534096Y2289541D01*
X3538799Y2299873D01*
X3540183Y2301414D01*
X3604500D01*
X3622136Y2304922D01*
X3637087Y2314913D01*
X3647077Y2329864D01*
X3650585Y2347500D01*
Y2400000D01*
X4280000D01*
Y50000D01*
X3396585D01*
Y64404D01*
X3745000D01*
X3752882Y65972D01*
X3759563Y70437D01*
X3871741Y182615D01*
X3872501Y182300D01*
X3887499D01*
X3901355Y188039D01*
X3911960Y198645D01*
X3917700Y212501D01*
Y227499D01*
X3911960Y241355D01*
X3901355Y251960D01*
X3900595Y252275D01*
Y274404D01*
X4101400D01*
Y242300D01*
X4216800D01*
Y347700D01*
X4101400D01*
Y315595D01*
X4043983D01*
X4039122Y327328D01*
X4108463Y396669D01*
X4112928Y403351D01*
X4114495Y411232D01*
Y419600D01*
X4146400D01*
Y485000D01*
Y551401D01*
X4140514Y563100D01*
X4141528Y564618D01*
X4143096Y572500D01*
Y582300D01*
X4217700D01*
Y687700D01*
X4103961D01*
X4096154Y697854D01*
X4137062Y738762D01*
X4137063Y738763D01*
X4141528Y745445D01*
X4143095Y753326D01*
Y772300D01*
X4217700D01*
Y877700D01*
X4154858D01*
X4148032Y887745D01*
X4147428Y890400D01*
X4148724Y896916D01*
Y922300D01*
X4217700D01*
Y1027700D01*
X4102300D01*
Y922300D01*
X4107533D01*
Y909820D01*
X4103551Y909028D01*
X4096869Y904563D01*
X4096869Y904563D01*
X4080236Y887930D01*
X4075772Y881249D01*
X4074204Y873367D01*
Y773331D01*
X4051469Y750595D01*
X4017700D01*
Y782700D01*
X3902300D01*
Y706426D01*
X3851469Y655595D01*
X3827700D01*
Y687700D01*
X3753420D01*
X3748560Y699433D01*
X3784563Y735436D01*
X3784563Y735437D01*
X3789028Y742118D01*
X3790596Y750000D01*
X3790596Y750001D01*
Y772300D01*
X3827700D01*
Y877700D01*
X3721898Y877700D01*
X3721407D01*
X3721406D01*
X3719788Y877700D01*
X3718643Y880463D01*
X3714527Y890400D01*
X3746427Y922300D01*
X3827700D01*
Y1027700D01*
X3712300D01*
Y946426D01*
X3645436Y879563D01*
X3640972Y872881D01*
X3639404Y865000D01*
Y785104D01*
X3627700Y782700D01*
Y782700D01*
X3512300D01*
Y706427D01*
X3506469Y700596D01*
X3437700D01*
Y742700D01*
X3282300D01*
Y617300D01*
X3437700D01*
Y659404D01*
X3515000D01*
X3522882Y660972D01*
X3529563Y665437D01*
X3541427Y677300D01*
X3627700D01*
Y709404D01*
X3651213D01*
X3659095Y710972D01*
X3665776Y715436D01*
X3674563Y724223D01*
X3679028Y730905D01*
X3680595Y738787D01*
Y856468D01*
X3699600Y875473D01*
X3712300Y870212D01*
X3712300Y868594D01*
X3712300Y868593D01*
X3712300Y868102D01*
Y772300D01*
X3749404D01*
Y758531D01*
X3685437Y694563D01*
X3680972Y687882D01*
X3679404Y680000D01*
Y618531D01*
X3595437Y534563D01*
X3590972Y527882D01*
X3589404Y520000D01*
Y442699D01*
X3511230D01*
Y384490D01*
X3499497Y379630D01*
X3438095Y441031D01*
Y447500D01*
X3437700Y449490D01*
Y552700D01*
X3282300D01*
Y427300D01*
X3397939D01*
X3398472Y424618D01*
X3402937Y417937D01*
X3479404Y341469D01*
Y330000D01*
X3480972Y322118D01*
X3485437Y315437D01*
X3492118Y310972D01*
X3500000Y309404D01*
X3514554D01*
X3515563Y309204D01*
X3622297D01*
X3630179Y310771D01*
X3636860Y315236D01*
X3652263Y330639D01*
X3656728Y337320D01*
X3658295Y345202D01*
Y494168D01*
X3686797Y522670D01*
X3698530Y517810D01*
Y497700D01*
X3756230D01*
Y550399D01*
X3731120D01*
X3726260Y562133D01*
X3746427Y582300D01*
X3827700D01*
Y614404D01*
X3860000D01*
X3867882Y615972D01*
X3874563Y620436D01*
X3923295Y669168D01*
X3938267Y666180D01*
X3939218Y664600D01*
X3938504Y661013D01*
Y442700D01*
X3901400D01*
Y350395D01*
X3870901D01*
X3851533Y369763D01*
X3844851Y374228D01*
X3836969Y375795D01*
X3715563D01*
X3707681Y374228D01*
X3700999Y369763D01*
X3689166Y357930D01*
X3684702Y351248D01*
X3683134Y343367D01*
Y230491D01*
X3673239Y220596D01*
X3447623D01*
X3437700Y227300D01*
Y352700D01*
X3282300D01*
Y252685D01*
X3215996D01*
Y544841D01*
X3214428Y552723D01*
X3209963Y559404D01*
X3206006Y563362D01*
Y692300D01*
X3212499D01*
X3226355Y698039D01*
X3236961Y708645D01*
X3242700Y722501D01*
Y737499D01*
X3236961Y751355D01*
X3226355Y761961D01*
X3225596Y762275D01*
Y845256D01*
X3245154Y864815D01*
X3250905Y860972D01*
X3258787Y859404D01*
X3282300D01*
Y817300D01*
X3437700D01*
Y942700D01*
X3282300D01*
Y900596D01*
X3267318D01*
X3265776Y902137D01*
X3259382Y906409D01*
Y1241469D01*
X3267318Y1249404D01*
X3282300D01*
Y1207300D01*
X3429404D01*
Y1168531D01*
X3402937Y1142063D01*
X3398472Y1135382D01*
X3397939Y1132700D01*
X3282300D01*
Y1007300D01*
X3437700D01*
Y1110510D01*
X3438095Y1112500D01*
Y1118969D01*
X3464563Y1145437D01*
X3469028Y1152118D01*
X3470596Y1160000D01*
Y1328191D01*
X3622354D01*
X3630236Y1329759D01*
X3636918Y1334223D01*
X3654563Y1351869D01*
X3659028Y1358551D01*
X3660595Y1366432D01*
Y1389404D01*
X3710000D01*
X3717882Y1390972D01*
X3724563Y1395437D01*
X3729028Y1402118D01*
X3730596Y1410000D01*
Y1424204D01*
X3823367D01*
X3831249Y1425772D01*
X3837931Y1430236D01*
X3864399Y1456704D01*
X3884169D01*
X3902300Y1438573D01*
Y1357300D01*
X3989589D01*
X3994404Y1351432D01*
Y1203096D01*
X3938572D01*
X3933311Y1215796D01*
X3936561Y1219045D01*
X3942300Y1232901D01*
Y1247899D01*
X3936561Y1261755D01*
X3925955Y1272361D01*
X3912099Y1278100D01*
X3897101D01*
X3883245Y1272361D01*
X3878176Y1267292D01*
X3851834D01*
X3827700Y1291427D01*
Y1367700D01*
X3712300D01*
Y1262300D01*
X3798573D01*
X3817773Y1243100D01*
X3812513Y1230400D01*
X3782700D01*
Y1165001D01*
X3757300D01*
Y1230400D01*
X3699600D01*
Y1164608D01*
X3686900Y1155503D01*
X3686433Y1155596D01*
X3635001D01*
X3635000Y1155596D01*
X3627118Y1154028D01*
X3620437Y1149563D01*
X3593573Y1122700D01*
X3512300D01*
Y1017300D01*
X3627700D01*
Y1098573D01*
X3643531Y1114404D01*
X3677901D01*
X3702069Y1090237D01*
X3702070Y1090236D01*
X3708751Y1085772D01*
X3716633Y1084204D01*
X3716634Y1084204D01*
X3823367D01*
X3831249Y1085772D01*
X3837931Y1090236D01*
X3849764Y1102069D01*
X3854228Y1108751D01*
X3855796Y1116633D01*
Y1161904D01*
X4006213D01*
X4010712Y1162799D01*
X4017528Y1151655D01*
X3988573Y1122700D01*
X3902300D01*
Y1017300D01*
X4017700D01*
Y1093573D01*
X4077867Y1153740D01*
X4089600Y1148880D01*
Y1099600D01*
X4147301D01*
Y1165000D01*
Y1230400D01*
X4100596D01*
Y1250306D01*
X4102300Y1262300D01*
X4217700D01*
Y1367700D01*
X4190596D01*
Y1395182D01*
X4212186Y1416773D01*
X4212266Y1416789D01*
X4218947Y1421253D01*
X4239763Y1442069D01*
X4239764Y1442070D01*
X4244228Y1448751D01*
X4245796Y1456633D01*
Y1893367D01*
X4244228Y1901249D01*
X4239764Y1907930D01*
X4227931Y1919763D01*
X4221249Y1924228D01*
X4213367Y1925796D01*
X4106633D01*
X4098751Y1924228D01*
X4092070Y1919763D01*
X4080236Y1907930D01*
X4075772Y1901249D01*
X4074204Y1893367D01*
Y1772504D01*
X4072295Y1770595D01*
X4017700D01*
Y1802700D01*
X3924489D01*
X3922500Y1803095D01*
X3920510Y1802700D01*
X3902300D01*
Y1784489D01*
X3901904Y1782500D01*
X3891606Y1775396D01*
X3755896D01*
X3749534Y1788096D01*
X3752678Y1792300D01*
X3827700D01*
Y1897700D01*
X3712300D01*
Y1816427D01*
X3698969Y1803096D01*
X3659598D01*
X3637930Y1824764D01*
X3631249Y1829228D01*
X3623367Y1830796D01*
X3452700D01*
Y1862700D01*
X3306078D01*
X3295395Y1873367D01*
Y1899605D01*
X3630200D01*
X3638082Y1901172D01*
X3644763Y1905637D01*
X3711031Y1971904D01*
X3717500D01*
X3719489Y1972300D01*
X3842700D01*
Y2147700D01*
X3697300D01*
Y2012061D01*
X3694618Y2011528D01*
X3687936Y2007063D01*
X3621669Y1940796D01*
X3286633D01*
X3278751Y1939228D01*
X3272069Y1934763D01*
X3260236Y1922930D01*
X3255772Y1916249D01*
X3254204Y1908367D01*
Y1881898D01*
X3245236Y1872930D01*
X3240772Y1866249D01*
X3239204Y1858367D01*
Y1751633D01*
X3240772Y1743751D01*
X3245236Y1737069D01*
X3257069Y1725236D01*
X3263751Y1720772D01*
X3271633Y1719204D01*
X3282300D01*
Y1695920D01*
X3270567Y1691060D01*
X3221809Y1739818D01*
Y2181213D01*
X3220241Y2189095D01*
X3215776Y2195776D01*
X3206990Y2204563D01*
X3200308Y2209028D01*
X3192426Y2210596D01*
X2785128D01*
X2642253Y2353471D01*
X2635571Y2357935D01*
X2634585Y2358131D01*
Y2400000D01*
X2972466D01*
Y2347500D01*
X2976960Y2324908D01*
X2989757Y2305756D01*
X3008908Y2292959D01*
X3031500Y2288466D01*
X3051299D01*
Y2415001D01*
X3076699D01*
Y2288466D01*
D02*
G37*
G36*
X2223415Y2347500D02*
X2226228Y2333355D01*
X2130437Y2237563D01*
X2125972Y2230882D01*
X2124404Y2223000D01*
Y1921250D01*
X2111704Y1915990D01*
X2107931Y1919764D01*
X2101249Y1924228D01*
X2093367Y1925796D01*
X2060596D01*
Y2301414D01*
X2080500D01*
X2098136Y2304922D01*
X2113087Y2314913D01*
X2123077Y2329864D01*
X2126585Y2347500D01*
Y2400000D01*
X2223415D01*
Y2347500D01*
D02*
G37*
G36*
X1029404Y2390000D02*
Y1897700D01*
X922300D01*
Y1821427D01*
X873370Y1772497D01*
X868906Y1765815D01*
X867338Y1757933D01*
Y1752897D01*
X849433Y1734992D01*
X837700Y1739853D01*
Y1802700D01*
X751427D01*
X729127Y1825000D01*
X732867Y1828740D01*
X737331Y1835422D01*
X738173Y1839650D01*
X746355Y1843039D01*
X756961Y1853645D01*
X762700Y1867501D01*
Y1882499D01*
X756961Y1896355D01*
X746355Y1906961D01*
X732499Y1912700D01*
X717501D01*
X703645Y1906961D01*
X693040Y1896355D01*
X687300Y1882499D01*
Y1867501D01*
X693040Y1853645D01*
X696279Y1850405D01*
X692937Y1847063D01*
X688472Y1840382D01*
X686904Y1832500D01*
Y1817500D01*
X688472Y1809618D01*
X692937Y1802937D01*
X712578Y1783296D01*
X707317Y1770596D01*
X465200D01*
X457700Y1776751D01*
Y1802700D01*
X342300D01*
Y1800395D01*
X308987D01*
X305400Y1799682D01*
X294824Y1806045D01*
X292700Y1808486D01*
Y1824405D01*
X542300D01*
Y1792300D01*
X657700D01*
Y1897700D01*
X542300D01*
Y1865596D01*
X292700D01*
Y1899605D01*
X492494D01*
X500375Y1901172D01*
X507057Y1905637D01*
X563708Y1962288D01*
X570177D01*
X572166Y1962683D01*
X695377D01*
Y2138083D01*
X549977D01*
Y2002445D01*
X547295Y2001911D01*
X540613Y1997447D01*
X483962Y1940796D01*
X126634D01*
X126633Y1940796D01*
X111633D01*
X103751Y1939228D01*
X97070Y1934764D01*
X85237Y1922931D01*
X80772Y1916249D01*
X79204Y1908367D01*
Y1760419D01*
X80772Y1752538D01*
X85237Y1745856D01*
X105856Y1725236D01*
X112538Y1720772D01*
X120420Y1719204D01*
X122300D01*
Y1597300D01*
X277700D01*
Y1669404D01*
X299194D01*
X300200Y1669204D01*
X371049D01*
X373363Y1667337D01*
X380039Y1656504D01*
X379404Y1653313D01*
Y1457700D01*
X342300D01*
Y1352300D01*
X342300D01*
X339896Y1340595D01*
X300000D01*
X292118Y1339028D01*
X285437Y1334563D01*
X285436Y1334562D01*
X283969Y1333096D01*
X242500D01*
X240510Y1332700D01*
X123296D01*
X122300Y1332700D01*
X110595Y1335103D01*
Y1394897D01*
X122300Y1397300D01*
Y1397300D01*
X277700D01*
Y1522700D01*
X122300D01*
Y1480595D01*
X100001D01*
X100000Y1480596D01*
X92118Y1479028D01*
X85436Y1474563D01*
X85436Y1474562D01*
X75436Y1464563D01*
X70972Y1457882D01*
X69404Y1450000D01*
Y1060000D01*
Y870000D01*
Y298787D01*
X70972Y290905D01*
X75436Y284223D01*
X84223Y275437D01*
X90905Y270972D01*
X98787Y269404D01*
X122300D01*
Y227300D01*
X277700D01*
Y236905D01*
X320225D01*
X320539Y236145D01*
X331145Y225540D01*
X345001Y219800D01*
X359999D01*
X373855Y225540D01*
X384460Y236145D01*
X390200Y250001D01*
Y264999D01*
X384460Y278855D01*
X373855Y289461D01*
X359999Y295200D01*
X345001D01*
X331145Y289461D01*
X320539Y278855D01*
X320225Y278096D01*
X277700D01*
Y352700D01*
X122300D01*
Y352700D01*
X110595Y355103D01*
Y424897D01*
X122300Y427300D01*
X123296Y427300D01*
X248573D01*
X314204Y361669D01*
Y341633D01*
X315772Y333751D01*
X320236Y327069D01*
X332069Y315236D01*
X338751Y310772D01*
X346633Y309204D01*
X453367D01*
X461249Y310772D01*
X467930Y315236D01*
X484563Y331869D01*
X489028Y338551D01*
X490595Y346432D01*
Y502295D01*
X517867Y529566D01*
X529600Y524706D01*
Y497700D01*
X587300D01*
Y550400D01*
X556120D01*
X551260Y562133D01*
X571427Y582300D01*
X657700D01*
Y614404D01*
X680000D01*
X687882Y615972D01*
X694563Y620437D01*
X742828Y668702D01*
X748299Y668032D01*
X759404Y661013D01*
Y442700D01*
X722300D01*
Y354335D01*
X709600Y352027D01*
X691863Y369764D01*
X685182Y374228D01*
X677300Y375796D01*
X546633D01*
X538751Y374228D01*
X532070Y369764D01*
X520236Y357930D01*
X515772Y351249D01*
X514204Y343367D01*
Y246633D01*
X515772Y238751D01*
X520236Y232069D01*
X625169Y127137D01*
X631851Y122672D01*
X639733Y121104D01*
X1202679D01*
X1210561Y122672D01*
X1217243Y127137D01*
X1225797Y135691D01*
X1721923D01*
X1725144Y130805D01*
X1727512Y122991D01*
X1718923Y110136D01*
X1715415Y92500D01*
Y50000D01*
X20000D01*
Y2400000D01*
X1018444D01*
X1029404Y2390000D01*
D02*
G37*
G36*
X2060333Y1779600D02*
X2058472Y1776814D01*
X2056904Y1768933D01*
Y1707700D01*
X1982300D01*
Y1635595D01*
X1697700D01*
Y1701704D01*
X1745601D01*
X1772069Y1675236D01*
X1778751Y1670772D01*
X1786633Y1669204D01*
X1893367D01*
X1901249Y1670772D01*
X1907930Y1675236D01*
X1962497Y1729803D01*
X1966961Y1736484D01*
X1968529Y1744366D01*
X1968529Y1744367D01*
Y1749402D01*
X2011427Y1792300D01*
X2054994D01*
X2060333Y1779600D01*
D02*
G37*
G36*
X1029404Y1733531D02*
X1003573Y1707700D01*
X922300D01*
Y1643096D01*
X657700D01*
Y1701704D01*
X689169D01*
X693953Y1696920D01*
X694288Y1695235D01*
X698753Y1688553D01*
X712069Y1675236D01*
X718751Y1670772D01*
X726633Y1669204D01*
X833367D01*
X841249Y1670772D01*
X847930Y1675236D01*
X902497Y1729803D01*
X906961Y1736484D01*
X908529Y1744366D01*
X908529Y1744367D01*
Y1749402D01*
X951427Y1792300D01*
X1029404D01*
Y1733531D01*
D02*
G37*
G36*
X3521704Y1504399D02*
X3490236Y1472931D01*
X3485772Y1466249D01*
X3484204Y1458367D01*
Y1369382D01*
X3458787D01*
X3450905Y1367815D01*
X3444223Y1363350D01*
X3435437Y1354563D01*
X3430972Y1347881D01*
X3429404Y1340000D01*
Y1332700D01*
X3294875D01*
X3288918Y1340920D01*
X3287273Y1345400D01*
X3288496Y1351548D01*
X3288496Y1351549D01*
Y1397300D01*
X3437700D01*
Y1522700D01*
X3282300D01*
Y1480595D01*
X3258788D01*
X3258787Y1480596D01*
X3252407Y1479326D01*
X3249181Y1480227D01*
X3239707Y1486819D01*
Y1547725D01*
X3240466Y1548039D01*
X3251072Y1558645D01*
X3256811Y1572501D01*
Y1572534D01*
X3269511Y1577795D01*
X3272069Y1575236D01*
X3278751Y1570772D01*
X3286633Y1569204D01*
X3433367D01*
X3441249Y1570772D01*
X3447930Y1575236D01*
X3459763Y1587069D01*
X3464228Y1593751D01*
X3465796Y1601633D01*
Y1631669D01*
X3466031Y1631905D01*
X3521704D01*
Y1504399D01*
D02*
G37*
G36*
X1582300Y1624869D02*
X1580972Y1622881D01*
X1579404Y1615000D01*
Y1584358D01*
X1578751Y1584228D01*
X1572069Y1579764D01*
X1572069Y1579763D01*
X1555437Y1563131D01*
X1550972Y1556449D01*
X1549404Y1548567D01*
Y1480000D01*
X1550972Y1472118D01*
X1553513Y1468316D01*
X1550972Y1464514D01*
X1549404Y1456633D01*
Y1430596D01*
X1515201D01*
X1515200Y1430596D01*
X1510400Y1429641D01*
X1500903Y1434929D01*
X1497700Y1437875D01*
Y1462700D01*
X1460596D01*
Y1641504D01*
X1504841D01*
X1512722Y1643072D01*
X1519404Y1647536D01*
X1547464Y1675596D01*
X1551928Y1682278D01*
X1553496Y1690159D01*
Y1701704D01*
X1582300D01*
Y1624869D01*
D02*
G37*
G36*
X2654800Y1626427D02*
X2646869Y1618496D01*
X2642404Y1611814D01*
X2640837Y1603933D01*
Y1576031D01*
X2630436Y1565631D01*
X2625972Y1558949D01*
X2624404Y1551068D01*
Y1430596D01*
X2586487D01*
X2582900Y1429882D01*
X2572324Y1436245D01*
X2570200Y1438686D01*
Y1462700D01*
X2527379D01*
Y1641504D01*
X2577341D01*
X2585222Y1643072D01*
X2591904Y1647536D01*
X2619963Y1675596D01*
X2624428Y1682278D01*
X2625996Y1690159D01*
Y1703804D01*
X2654800D01*
Y1626427D01*
D02*
G37*
G36*
X542300D02*
X541869Y1625995D01*
X537404Y1619314D01*
X535837Y1611432D01*
Y1578531D01*
X515437Y1558131D01*
X510972Y1551449D01*
X509404Y1543568D01*
Y1430596D01*
X473987D01*
X470400Y1429882D01*
X459824Y1436245D01*
X457700Y1438686D01*
Y1457700D01*
X420595D01*
Y1641504D01*
X464841D01*
X472722Y1643072D01*
X479404Y1647536D01*
X507464Y1675596D01*
X511928Y1682278D01*
X513496Y1690159D01*
Y1701704D01*
X542300D01*
Y1626427D01*
D02*
G37*
G36*
X3712300D02*
X3706869Y1620996D01*
X3702405Y1614314D01*
X3700837Y1606432D01*
Y1578531D01*
X3690236Y1567931D01*
X3685772Y1561249D01*
X3684204Y1553367D01*
Y1456633D01*
X3685772Y1448751D01*
X3689404Y1443315D01*
Y1430596D01*
X3648787D01*
X3640905Y1429028D01*
X3640400Y1428690D01*
X3627700Y1435479D01*
Y1462700D01*
X3590596D01*
Y1641504D01*
X3634841D01*
X3642722Y1643072D01*
X3649404Y1647536D01*
X3682263Y1680395D01*
X3686728Y1687077D01*
X3688295Y1694959D01*
Y1706505D01*
X3712300D01*
Y1626427D01*
D02*
G37*
G36*
X4204605Y1557700D02*
X4102300D01*
Y1476427D01*
X4065437Y1439563D01*
X4060972Y1432882D01*
X4059404Y1425000D01*
Y1193531D01*
X4045845Y1179971D01*
X4034701Y1186788D01*
X4035595Y1191287D01*
Y1342902D01*
X4039763Y1347069D01*
X4039764Y1347069D01*
X4044228Y1353751D01*
X4045796Y1361633D01*
Y1458367D01*
X4044228Y1466249D01*
X4039764Y1472931D01*
X4039763Y1472931D01*
X4035075Y1477619D01*
X4034028Y1482882D01*
X4029563Y1489563D01*
X3999563Y1519563D01*
X3992882Y1524028D01*
X3985000Y1525596D01*
X3827700D01*
Y1557700D01*
X3751620D01*
X3742028Y1570000D01*
Y1597902D01*
X3746031Y1601904D01*
X4127500D01*
X4129489Y1602300D01*
X4204605D01*
Y1557700D01*
D02*
G37*
G36*
X4102300Y686039D02*
Y604489D01*
X4101904Y602500D01*
Y581031D01*
X4079337Y558463D01*
X4074872Y551781D01*
X4073304Y543900D01*
Y419763D01*
X4028533Y374992D01*
X4016800Y379853D01*
Y442700D01*
X3979696D01*
Y649204D01*
X4013367D01*
X4021249Y650772D01*
X4027930Y655236D01*
X4052098Y679404D01*
X4069173D01*
X4077055Y680972D01*
X4083737Y685437D01*
X4092146Y693845D01*
X4102300Y686039D01*
D02*
G37*
G36*
X3859404Y252275D02*
X3858645Y251960D01*
X3848039Y241355D01*
X3842300Y227499D01*
Y212501D01*
X3842615Y211741D01*
X3736469Y105596D01*
X3393981D01*
X3393077Y110136D01*
X3383087Y125087D01*
X3368136Y135077D01*
X3350500Y138585D01*
X3285500D01*
X3267864Y135077D01*
X3252913Y125087D01*
X3242923Y110136D01*
X3239415Y92500D01*
Y50000D01*
X3142585D01*
Y92500D01*
X3139077Y110136D01*
X3129087Y125087D01*
X3114136Y135077D01*
X3096500Y138585D01*
X3032183D01*
X3030798Y140127D01*
X3026096Y150459D01*
X3055041Y179405D01*
X3681770D01*
X3689651Y180972D01*
X3696333Y185437D01*
X3718293Y207397D01*
X3722758Y214078D01*
X3724325Y221960D01*
Y242299D01*
X3826630D01*
Y274404D01*
X3859404D01*
Y252275D01*
D02*
G37*
G36*
X2707268Y157537D02*
X2707269Y157537D01*
X2713951Y153072D01*
X2721832Y151504D01*
X2907500D01*
X2915382Y153072D01*
X2922063Y157537D01*
X2971631Y207104D01*
X3007894D01*
X3012755Y195371D01*
X2922979Y105596D01*
X2631981D01*
X2631077Y110136D01*
X2621087Y125087D01*
X2606136Y135077D01*
X2588500Y138585D01*
X2523500D01*
X2505864Y135077D01*
X2490913Y125087D01*
X2480923Y110136D01*
X2477415Y92500D01*
Y50000D01*
X2380585D01*
Y73904D01*
X2384500D01*
X2392382Y75472D01*
X2399063Y79937D01*
X2558531Y239404D01*
X2625401D01*
X2707268Y157537D01*
D02*
G37*
%LPC*%
G36*
X2405400Y2215400D02*
X2312700D01*
Y2157700D01*
X2405400D01*
Y2215400D01*
D02*
G37*
G36*
X2287300D02*
X2194600D01*
Y2157700D01*
X2287300D01*
Y2215400D01*
D02*
G37*
G36*
X2405400Y2132300D02*
X2312700D01*
Y2074600D01*
X2405400D01*
Y2132300D01*
D02*
G37*
G36*
X2287300D02*
X2194600D01*
Y2074600D01*
X2287300D01*
Y2132300D01*
D02*
G37*
G36*
X3052435Y2145076D02*
X2907036D01*
Y1969677D01*
X3052435D01*
Y2036781D01*
X3097906D01*
X3105787Y2038348D01*
X3112469Y2042813D01*
X3115045Y2045389D01*
X3122501Y2042300D01*
X3137499D01*
X3151355Y2048039D01*
X3161961Y2058645D01*
X3167700Y2072501D01*
Y2087499D01*
X3161961Y2101355D01*
X3151355Y2111960D01*
X3137499Y2117700D01*
X3122501D01*
X3108645Y2111960D01*
X3098040Y2101355D01*
X3092300Y2087499D01*
Y2080898D01*
X3089375Y2077972D01*
X3052435D01*
Y2145076D01*
D02*
G37*
G36*
X3127300Y2019292D02*
X3111451Y2012727D01*
X3097273Y1998549D01*
X3090708Y1982700D01*
X3127300D01*
Y2019292D01*
D02*
G37*
G36*
Y1957300D02*
X3090708D01*
X3097273Y1941451D01*
X3111451Y1927273D01*
X3127300Y1920708D01*
Y1957300D01*
D02*
G37*
G36*
X3172900Y1230400D02*
X3115200D01*
Y1177700D01*
X3172900D01*
Y1230400D01*
D02*
G37*
G36*
X3089800D02*
X3032100D01*
Y1177700D01*
X3089800D01*
Y1230400D01*
D02*
G37*
G36*
X2699800D02*
X2642100D01*
Y1177700D01*
X2699800D01*
Y1230400D01*
D02*
G37*
G36*
X3172900Y1152300D02*
X3115200D01*
Y1099600D01*
X3172900D01*
Y1152300D01*
D02*
G37*
G36*
X3089800D02*
X3032100D01*
Y1099600D01*
X3089800D01*
Y1152300D01*
D02*
G37*
G36*
X3160200Y1027700D02*
X3044800D01*
Y922300D01*
X3061904D01*
Y908095D01*
X3051432D01*
X3043550Y906528D01*
X3036869Y902063D01*
X3022736Y887931D01*
X3018272Y881249D01*
X3016704Y873367D01*
Y807505D01*
X2971933Y762734D01*
X2960200Y767594D01*
Y782700D01*
X2844800D01*
Y706427D01*
X2793969Y655596D01*
X2770200D01*
Y687700D01*
X2684787D01*
X2679526Y700400D01*
X2719563Y740437D01*
X2724028Y747118D01*
X2725595Y755000D01*
Y772300D01*
X2770200D01*
Y877700D01*
X2664398Y877700D01*
X2663906D01*
D01*
X2662288Y877701D01*
X2661143Y880462D01*
X2657027Y890400D01*
X2688927Y922300D01*
X2770200D01*
Y1027700D01*
X2654800D01*
Y946427D01*
X2587936Y879563D01*
X2583472Y872881D01*
X2581904Y865000D01*
Y785103D01*
X2570199Y782700D01*
Y782700D01*
X2454800D01*
Y706427D01*
X2446609Y698236D01*
X2380149D01*
Y740340D01*
X2224749D01*
Y614941D01*
X2380149D01*
Y657045D01*
X2455140D01*
X2463022Y658613D01*
X2469703Y663077D01*
X2483926Y677300D01*
X2570200D01*
Y709404D01*
X2593713D01*
X2601594Y710972D01*
X2608276Y715437D01*
X2617063Y724224D01*
X2621528Y730905D01*
X2623095Y738787D01*
Y856469D01*
X2642100Y875473D01*
X2654799Y870212D01*
X2654800Y868594D01*
X2654800Y868594D01*
X2654800Y868102D01*
Y772300D01*
X2675213D01*
X2680473Y759600D01*
X2632736Y711863D01*
X2628272Y705181D01*
X2626704Y697300D01*
Y617504D01*
X2537936Y528737D01*
X2533472Y522055D01*
X2531904Y514173D01*
Y463531D01*
X2526650Y458276D01*
X2522185Y451595D01*
X2520617Y443713D01*
Y442700D01*
X2454800D01*
Y379853D01*
X2443066Y374992D01*
X2430162Y387897D01*
Y397932D01*
X2430162Y397933D01*
X2428594Y405815D01*
X2424130Y412497D01*
X2380199Y456427D01*
Y552700D01*
X2224800D01*
Y427300D01*
X2351073D01*
X2388971Y389402D01*
Y379366D01*
X2390538Y371484D01*
X2395003Y364803D01*
X2444569Y315236D01*
X2451251Y310772D01*
X2459132Y309204D01*
X2565867D01*
X2573748Y310772D01*
X2580430Y315236D01*
X2594763Y329569D01*
X2599227Y336251D01*
X2600795Y344132D01*
Y490195D01*
X2630367Y519767D01*
X2642100Y514907D01*
Y497700D01*
X2699800D01*
Y550400D01*
X2677593D01*
X2672733Y562133D01*
X2689562Y578963D01*
X2689563Y578963D01*
X2691793Y582300D01*
X2770200D01*
Y614404D01*
X2802500D01*
X2810381Y615972D01*
X2817063Y620437D01*
X2873926Y677300D01*
X2909080D01*
X2913940Y665567D01*
X2912936Y664563D01*
X2908472Y657882D01*
X2906904Y650000D01*
Y442700D01*
X2844800D01*
Y337300D01*
X2960200D01*
Y442700D01*
X2948095D01*
Y641469D01*
X2955831Y649204D01*
X2955867D01*
X2963748Y650772D01*
X2970430Y655236D01*
X2982263Y667070D01*
X2986728Y673751D01*
X2988296Y681633D01*
Y681669D01*
X3078927Y772300D01*
X3160200D01*
Y877700D01*
X3109649D01*
X3104979Y883856D01*
X3101924Y890400D01*
X3103095Y896287D01*
Y922300D01*
X3160200D01*
Y1027700D01*
D02*
G37*
G36*
X3089800Y550400D02*
X3032100D01*
Y497700D01*
X3089800D01*
Y550400D01*
D02*
G37*
G36*
X2782900D02*
X2725200D01*
Y497700D01*
X2782900D01*
Y550400D01*
D02*
G37*
G36*
X3089800Y472300D02*
X3032100D01*
Y419600D01*
X3089800D01*
Y472300D01*
D02*
G37*
G36*
X2782900Y472300D02*
X2725200D01*
Y419600D01*
X2782900D01*
Y472300D01*
D02*
G37*
G36*
X2699800D02*
X2642100D01*
Y419600D01*
X2699800D01*
Y472300D01*
D02*
G37*
G36*
X1355400Y2215400D02*
X1262700D01*
Y2157700D01*
X1355400D01*
Y2215400D01*
D02*
G37*
G36*
X1237300D02*
X1144600D01*
Y2157700D01*
X1237300D01*
Y2215400D01*
D02*
G37*
G36*
X1452700Y2119292D02*
Y2082700D01*
X1489292D01*
X1482727Y2098549D01*
X1468549Y2112727D01*
X1452700Y2119292D01*
D02*
G37*
G36*
X1427300D02*
X1411451Y2112727D01*
X1397273Y2098549D01*
X1390708Y2082700D01*
X1427300D01*
Y2119292D01*
D02*
G37*
G36*
X1355400Y2132300D02*
X1262700D01*
Y2074600D01*
X1355400D01*
Y2132300D01*
D02*
G37*
G36*
X1237300D02*
X1144600D01*
Y2074600D01*
X1237300D01*
Y2132300D01*
D02*
G37*
G36*
X1489292Y2057300D02*
X1452700D01*
Y2020708D01*
X1468549Y2027273D01*
X1482727Y2041451D01*
X1489292Y2057300D01*
D02*
G37*
G36*
X1427300D02*
X1390708D01*
X1397273Y2041451D01*
X1411451Y2027273D01*
X1427300Y2020708D01*
Y2057300D01*
D02*
G37*
G36*
X1887499Y2257700D02*
X1872501D01*
X1858645Y2251960D01*
X1848039Y2241355D01*
X1842300Y2227499D01*
Y2212501D01*
X1848039Y2198645D01*
X1858645Y2188039D01*
X1872501Y2182300D01*
X1887499D01*
X1888259Y2182615D01*
X1897900Y2172974D01*
Y2145076D01*
X1845795D01*
Y1969677D01*
X1991195D01*
Y2145076D01*
X1939091D01*
Y2181503D01*
X1939091Y2181505D01*
X1937523Y2189386D01*
X1933059Y2196068D01*
X1933058Y2196069D01*
X1917385Y2211741D01*
X1917700Y2212501D01*
Y2227499D01*
X1911961Y2241355D01*
X1901355Y2251960D01*
X1887499Y2257700D01*
D02*
G37*
G36*
X2110400Y1230400D02*
X2052700D01*
Y1177701D01*
X2110400D01*
Y1230400D01*
D02*
G37*
G36*
X2027300D02*
X1969600D01*
Y1177701D01*
X2027300D01*
Y1230400D01*
D02*
G37*
G36*
X1050400D02*
X992700D01*
Y1177700D01*
X1050400D01*
Y1230400D01*
D02*
G37*
G36*
X967300D02*
X909600D01*
Y1177700D01*
X967300D01*
Y1230400D01*
D02*
G37*
G36*
X1627301D02*
X1569600D01*
Y1177700D01*
X1627301D01*
Y1230400D01*
D02*
G37*
G36*
X587301D02*
X529600D01*
Y1177700D01*
X587301D01*
Y1230400D01*
D02*
G37*
G36*
X2110400Y1152301D02*
X2052700D01*
Y1099600D01*
X2110400D01*
Y1152301D01*
D02*
G37*
G36*
X2027300D02*
X1969600D01*
Y1099600D01*
X2027300D01*
Y1152301D01*
D02*
G37*
G36*
X1050400Y1152300D02*
X992700D01*
Y1099600D01*
X1050400D01*
Y1152300D01*
D02*
G37*
G36*
X967300D02*
X909600D01*
Y1099600D01*
X967300D01*
Y1152300D01*
D02*
G37*
G36*
X2110400Y550400D02*
X2052699D01*
Y497701D01*
X2110400D01*
Y550400D01*
D02*
G37*
G36*
X1050400D02*
X992700D01*
Y497700D01*
X1050400D01*
Y550400D01*
D02*
G37*
G36*
X1710400D02*
X1652700D01*
Y497700D01*
X1710400D01*
Y550400D01*
D02*
G37*
G36*
X2110400Y472301D02*
X2052699D01*
Y419600D01*
X2110400D01*
Y472301D01*
D02*
G37*
G36*
X1710400Y472300D02*
X1652700D01*
Y419600D01*
X1710400D01*
Y472300D01*
D02*
G37*
G36*
X1627300D02*
X1569600D01*
Y419600D01*
X1627300D01*
Y472300D01*
D02*
G37*
G36*
X1050400Y472300D02*
X992700D01*
Y419600D01*
X1050400D01*
Y472300D01*
D02*
G37*
G36*
X2882700Y2369292D02*
Y2332700D01*
X2919292D01*
X2912727Y2348549D01*
X2898549Y2362727D01*
X2882700Y2369292D01*
D02*
G37*
G36*
X2857300D02*
X2841451Y2362727D01*
X2827273Y2348549D01*
X2820708Y2332700D01*
X2857300D01*
Y2369292D01*
D02*
G37*
G36*
X2919292Y2307300D02*
X2882700D01*
Y2270708D01*
X2898549Y2277273D01*
X2912727Y2291451D01*
X2919292Y2307300D01*
D02*
G37*
G36*
X2857300D02*
X2820708D01*
X2827273Y2291451D01*
X2841451Y2277273D01*
X2857300Y2270708D01*
Y2307300D01*
D02*
G37*
G36*
X3465400Y2165400D02*
X3372700D01*
Y2107700D01*
X3465400D01*
Y2165400D01*
D02*
G37*
G36*
X3347300D02*
X3254600D01*
Y2107700D01*
X3347300D01*
Y2165400D01*
D02*
G37*
G36*
X3465400Y2082300D02*
X3372700D01*
Y2024600D01*
X3465400D01*
Y2082300D01*
D02*
G37*
G36*
X3347300D02*
X3254600D01*
Y2024600D01*
X3347300D01*
Y2082300D01*
D02*
G37*
G36*
X4230400Y1230400D02*
X4172701D01*
Y1177700D01*
X4230400D01*
Y1230400D01*
D02*
G37*
G36*
Y1152300D02*
X4172701D01*
Y1099600D01*
X4230400D01*
Y1152300D01*
D02*
G37*
G36*
X4229500Y550400D02*
X4171800D01*
Y497700D01*
X4229500D01*
Y550400D01*
D02*
G37*
G36*
X3839330Y550399D02*
X3781630D01*
Y497700D01*
X3839330D01*
Y550399D01*
D02*
G37*
G36*
X4229500Y472300D02*
X4171800D01*
Y419600D01*
X4229500D01*
Y472300D01*
D02*
G37*
G36*
X3839330Y472300D02*
X3781630D01*
Y419600D01*
X3839330D01*
Y472300D01*
D02*
G37*
G36*
X3756230D02*
X3698530D01*
Y419600D01*
X3756230D01*
Y472300D01*
D02*
G37*
G36*
X4092700Y219292D02*
Y182700D01*
X4129292D01*
X4122727Y198549D01*
X4108549Y212727D01*
X4092700Y219292D01*
D02*
G37*
G36*
X4067300D02*
X4051451Y212727D01*
X4037273Y198549D01*
X4030708Y182700D01*
X4067300D01*
Y219292D01*
D02*
G37*
G36*
X4129292Y157300D02*
X4092700D01*
Y120708D01*
X4108549Y127273D01*
X4122727Y141451D01*
X4129292Y157300D01*
D02*
G37*
G36*
X4067300D02*
X4030708D01*
X4037273Y141451D01*
X4051451Y127273D01*
X4067300Y120708D01*
Y157300D01*
D02*
G37*
G36*
X305400Y2215400D02*
X212700D01*
Y2157700D01*
X305400D01*
Y2215400D01*
D02*
G37*
G36*
X187300D02*
X94600D01*
Y2157700D01*
X187300D01*
Y2215400D01*
D02*
G37*
G36*
X382700Y2189292D02*
Y2152700D01*
X419292D01*
X412727Y2168549D01*
X398549Y2182727D01*
X382700Y2189292D01*
D02*
G37*
G36*
X357300D02*
X341451Y2182727D01*
X327273Y2168549D01*
X320708Y2152700D01*
X357300D01*
Y2189292D01*
D02*
G37*
G36*
X419292Y2127300D02*
X382700D01*
Y2090708D01*
X398549Y2097273D01*
X412727Y2111451D01*
X419292Y2127300D01*
D02*
G37*
G36*
X357300D02*
X320708D01*
X327273Y2111451D01*
X341451Y2097273D01*
X357300Y2090708D01*
Y2127300D01*
D02*
G37*
G36*
X305400Y2132300D02*
X212700D01*
Y2074600D01*
X305400D01*
Y2132300D01*
D02*
G37*
G36*
X187300D02*
X94600D01*
Y2074600D01*
X187300D01*
Y2132300D01*
D02*
G37*
G36*
X847499Y2257700D02*
X832501D01*
X818645Y2251960D01*
X808040Y2241355D01*
X802300Y2227499D01*
Y2212501D01*
X808040Y2198645D01*
X818645Y2188039D01*
X832501Y2182300D01*
X839102D01*
X842081Y2179321D01*
Y2138083D01*
X789977D01*
Y1962683D01*
X935377D01*
Y2138083D01*
X883272D01*
Y2187852D01*
X881705Y2195734D01*
X877240Y2202416D01*
X874611Y2205044D01*
X877700Y2212501D01*
Y2227499D01*
X871961Y2241355D01*
X861355Y2251960D01*
X847499Y2257700D01*
D02*
G37*
G36*
X670400Y550400D02*
X612700D01*
Y497700D01*
X670400D01*
Y550400D01*
D02*
G37*
G36*
Y472300D02*
X612700D01*
Y419600D01*
X670400D01*
Y472300D01*
D02*
G37*
G36*
X587300D02*
X529600D01*
Y419600D01*
X587300D01*
Y472300D01*
D02*
G37*
G36*
X432700Y209292D02*
Y172700D01*
X469292D01*
X462727Y188549D01*
X448549Y202727D01*
X432700Y209292D01*
D02*
G37*
G36*
X407300D02*
X391451Y202727D01*
X377273Y188549D01*
X370708Y172700D01*
X407300D01*
Y209292D01*
D02*
G37*
G36*
X469292Y147300D02*
X432700D01*
Y110708D01*
X448549Y117273D01*
X462727Y131451D01*
X469292Y147300D01*
D02*
G37*
G36*
X407300D02*
X370708D01*
X377273Y131451D01*
X391451Y117273D01*
X407300Y110708D01*
Y147300D01*
D02*
G37*
%LPD*%
D10*
X200000Y2145000D02*
D03*
Y1855000D02*
D03*
D11*
X1250000D02*
D03*
Y2145000D02*
D03*
X2300000D02*
D03*
Y1855000D02*
D03*
X3360000Y2095000D02*
D03*
Y1805000D02*
D03*
D12*
X622677Y2050383D02*
D03*
X862677D02*
D03*
X1918495Y2057376D02*
D03*
X1678495D02*
D03*
X2739735D02*
D03*
X2979735D02*
D03*
X4010000Y2060000D02*
D03*
X3770000D02*
D03*
D13*
X980000Y1845000D02*
D03*
X780000Y1750000D02*
D03*
X980000Y1655000D02*
D03*
Y1505000D02*
D03*
X780000Y1410000D02*
D03*
X980000Y1315000D02*
D03*
X2040000Y1845000D02*
D03*
X1840000Y1750000D02*
D03*
X2040000Y1655000D02*
D03*
Y1505000D02*
D03*
X1840000Y1410000D02*
D03*
X2040000Y1315000D02*
D03*
X600000Y1845000D02*
D03*
X400000Y1750000D02*
D03*
X600000Y1655000D02*
D03*
X1640000Y1845000D02*
D03*
X1440000Y1750000D02*
D03*
X1640000Y1655000D02*
D03*
X600000Y1500000D02*
D03*
X400000Y1405000D02*
D03*
X600000Y1310000D02*
D03*
X980000Y1165000D02*
D03*
X780000Y1070000D02*
D03*
X980000Y975000D02*
D03*
X1640000Y1505000D02*
D03*
X1440000Y1410000D02*
D03*
X1640000Y1315000D02*
D03*
X2040000Y1165000D02*
D03*
X1840000Y1070000D02*
D03*
X2040000Y975000D02*
D03*
X600000Y1165000D02*
D03*
X400000Y1070000D02*
D03*
X600000Y975000D02*
D03*
X1640000Y1165000D02*
D03*
X1440000Y1070000D02*
D03*
X1640000Y975000D02*
D03*
X600000Y825000D02*
D03*
X400000Y730000D02*
D03*
X600000Y635000D02*
D03*
X980000Y825000D02*
D03*
X780000Y730000D02*
D03*
X980000Y635000D02*
D03*
X1640000Y825000D02*
D03*
X1440000Y730000D02*
D03*
X1640000Y635000D02*
D03*
X2040000Y825000D02*
D03*
X1840000Y730000D02*
D03*
X2040000Y635000D02*
D03*
X600000Y485000D02*
D03*
X400000Y390000D02*
D03*
X600000Y295000D02*
D03*
X980000Y485000D02*
D03*
X780000Y390000D02*
D03*
X980000Y295000D02*
D03*
X1640000Y485000D02*
D03*
X1440000Y390000D02*
D03*
X1640000Y295000D02*
D03*
X2040000Y485000D02*
D03*
X1840000Y390000D02*
D03*
X2040000Y295000D02*
D03*
X3102500Y1845000D02*
D03*
X2902500Y1750000D02*
D03*
X3102500Y1655000D02*
D03*
Y1505000D02*
D03*
X2902500Y1410000D02*
D03*
X3102500Y1315000D02*
D03*
X4160000Y1845000D02*
D03*
X3960000Y1750000D02*
D03*
X4160000Y1655000D02*
D03*
Y1505000D02*
D03*
X3960000Y1410000D02*
D03*
X4160000Y1315000D02*
D03*
X2712500Y1845000D02*
D03*
X2512500Y1750000D02*
D03*
X2712500Y1655000D02*
D03*
X3770000Y1845000D02*
D03*
X3570000Y1750000D02*
D03*
X3770000Y1655000D02*
D03*
X2712500Y1505000D02*
D03*
X2512500Y1410000D02*
D03*
X2712500Y1315000D02*
D03*
X3102500Y1165000D02*
D03*
X2902500Y1070000D02*
D03*
X3102500Y975000D02*
D03*
X3770000Y1505000D02*
D03*
X3570000Y1410000D02*
D03*
X3770000Y1315000D02*
D03*
X4160000Y1165000D02*
D03*
X3960000Y1070000D02*
D03*
X4160000Y975000D02*
D03*
X2712500Y1165000D02*
D03*
X2512500Y1070000D02*
D03*
X2712500Y975000D02*
D03*
X3770000Y1165000D02*
D03*
X3570000Y1070000D02*
D03*
X3770000Y975000D02*
D03*
X2712500Y825000D02*
D03*
X2512500Y730000D02*
D03*
X2712500Y635000D02*
D03*
X3102500Y825000D02*
D03*
X2902500Y730000D02*
D03*
X3102500Y635000D02*
D03*
X3770000Y825000D02*
D03*
X3570000Y730000D02*
D03*
X3770000Y635000D02*
D03*
X4160000Y825000D02*
D03*
X3960000Y730000D02*
D03*
X4160000Y635000D02*
D03*
X2712500Y485000D02*
D03*
X2512500Y390000D02*
D03*
X2712500Y295000D02*
D03*
X3102500Y485000D02*
D03*
X2902500Y390000D02*
D03*
X3102500Y295000D02*
D03*
X3768930Y485000D02*
D03*
X3568930Y389999D02*
D03*
X3768930Y294999D02*
D03*
X4159100Y485000D02*
D03*
X3959100Y390000D02*
D03*
X4159100Y295000D02*
D03*
D14*
X200000Y1460000D02*
D03*
Y1660000D02*
D03*
Y1270000D02*
D03*
Y1070000D02*
D03*
X1240000Y1460000D02*
D03*
Y1660000D02*
D03*
Y1270000D02*
D03*
Y1070000D02*
D03*
X200000Y880000D02*
D03*
Y680000D02*
D03*
Y490000D02*
D03*
Y290000D02*
D03*
X1240000Y880000D02*
D03*
Y680000D02*
D03*
Y490000D02*
D03*
Y290000D02*
D03*
X2302500Y1460000D02*
D03*
Y1660000D02*
D03*
Y1270000D02*
D03*
Y1070000D02*
D03*
X3360000Y1460000D02*
D03*
Y1660000D02*
D03*
Y1070000D02*
D03*
Y1270000D02*
D03*
X2302449Y877641D02*
D03*
Y677641D02*
D03*
X2302500Y490000D02*
D03*
Y290000D02*
D03*
X3360000Y880000D02*
D03*
Y680000D02*
D03*
Y490000D02*
D03*
Y290000D02*
D03*
D15*
X1260000Y1845000D02*
X1640000D01*
X1250000Y1855000D02*
X1260000Y1845000D01*
X2300000Y1855000D02*
X2337500Y1817500D01*
X2558567D01*
X2596268Y1779800D01*
X3360000Y1805000D02*
X3365200Y1810200D01*
X3623367D01*
X3259800Y1858367D02*
X3274800Y1873367D01*
X3458567Y1750000D02*
X3570000D01*
X3271633Y1739800D02*
X3448367D01*
X3274800Y1873367D02*
Y1908367D01*
X3259800Y1751633D02*
X3271633Y1739800D01*
X3259800Y1751633D02*
Y1858367D01*
X3448367Y1739800D02*
X3458567Y1750000D01*
X99800Y1908367D02*
X111633Y1920200D01*
X120420Y1739800D02*
X288367D01*
X99800Y1760419D02*
Y1908367D01*
Y1760419D02*
X120420Y1739800D01*
X126633Y1920200D02*
X126633Y1920200D01*
X492494D01*
X111633Y1920200D02*
X126633D01*
X492494Y1920200D02*
X555177Y1982883D01*
X205000Y1845000D02*
X600000D01*
X200000Y1850000D02*
X205000Y1845000D01*
X288367Y1739800D02*
X300200Y1751633D01*
X308987Y1779800D02*
X370200D01*
X300200Y1751633D02*
Y1771013D01*
X308987Y1779800D01*
X1150000Y1800268D02*
Y1801433D01*
X1162037Y1920200D02*
X1166253Y1924416D01*
X1149800Y1908367D02*
X1161633Y1920200D01*
X1150000Y1800268D02*
X1170268Y1780000D01*
X1149800Y1801633D02*
Y1908367D01*
X1161633Y1920200D02*
X1162037D01*
X1149800Y1801633D02*
X1150000Y1801433D01*
X1170268Y1780000D02*
X1410000D01*
X1166253Y1924416D02*
X1545535D01*
X2211633Y1920200D02*
X2220382D01*
X2220383Y1920200D01*
X2211633Y1789800D02*
X2219132D01*
X2229132Y1779800D01*
X2199800Y1801633D02*
X2211633Y1789800D01*
X2220383Y1920200D02*
X2602559D01*
X2199800Y1908367D02*
X2211633Y1920200D01*
X2199800Y1801633D02*
Y1908367D01*
X2229132Y1779800D02*
X2482700D01*
X4080826Y1750000D02*
X4094800Y1763973D01*
X3960000Y1750000D02*
X4080826D01*
X4094800Y1763973D02*
Y1893367D01*
X4213367Y1905200D02*
X4225200Y1893367D01*
X4106633Y1905200D02*
X4213367D01*
X4225200Y1456633D02*
Y1893367D01*
X4204384Y1435817D02*
X4225200Y1456633D01*
X4202103Y1435817D02*
X4204384D01*
X4170000Y1403713D02*
X4202103Y1435817D01*
X4094800Y1893367D02*
X4106633Y1905200D01*
X4130000Y1815000D02*
X4160000Y1845000D01*
X4025000Y1655000D02*
X4130000Y1760000D01*
Y1815000D01*
X3845000Y1655000D02*
X4025000D01*
X3204187Y232089D02*
X3293713D01*
X3195400Y240876D02*
X3204187Y232089D01*
X3205000Y723303D02*
Y853787D01*
X3293713Y232089D02*
X3302500Y240876D01*
Y247500D01*
X3140000Y561067D02*
X3167700Y533367D01*
X3185410Y554831D02*
X3195400Y544841D01*
X3148767Y227700D02*
X3167700Y246633D01*
X3195400Y240876D02*
Y544841D01*
X3167700Y246633D02*
Y533367D01*
X3185410Y554831D02*
Y703713D01*
X3205000Y723303D01*
X3302500Y247500D02*
X3345000Y290000D01*
X3360000D01*
X2963100Y227700D02*
X3148767D01*
X3681770Y200000D02*
X3703730Y221960D01*
X3046510Y200000D02*
X3681770D01*
X2931510Y85000D02*
X3046510Y200000D01*
X2638513Y255420D02*
X2721832Y172100D01*
X2907500D01*
X2963100Y227700D01*
X3201213Y1731287D02*
X3274800Y1657701D01*
X2776597Y2190000D02*
X3192426D01*
X3201213Y2181213D01*
Y1731287D02*
Y2181213D01*
X3274800Y1601633D02*
Y1657701D01*
X3707500Y1782500D02*
X3770000Y1845000D01*
X3623367Y1810200D02*
X3651067Y1782500D01*
X3707500D01*
X2900400Y1752100D02*
X2902500Y1750000D01*
X2586487Y1752100D02*
X2900400D01*
X2870000Y1782500D02*
X2902500Y1750000D01*
X2967700Y1749147D02*
X2976487Y1757933D01*
X2955867Y1689800D02*
X2967700Y1701633D01*
Y1749147D01*
X2605400Y1715613D02*
X2614187Y1724400D01*
X2605400Y1690159D02*
Y1715613D01*
X2614187Y1724400D02*
X2814533D01*
X2976487Y1757933D02*
X3010433D01*
X2849132Y1689800D02*
X2955867D01*
X2814533Y1724400D02*
X2849132Y1689800D01*
X2577700Y1743313D02*
X2586487Y1752100D01*
X2596268Y1779800D02*
X2647299D01*
X2712500Y1845000D01*
X2577700Y1701633D02*
Y1743313D01*
X3274800Y1908367D02*
X3286633Y1920200D01*
X3630200D01*
X3640000Y1706432D02*
Y1746013D01*
X3922500Y1754800D02*
X3935000Y1767300D01*
X3772900Y1727100D02*
X3784800Y1715200D01*
X3640000Y1746013D02*
X3648787Y1754800D01*
X3667700Y1694959D02*
Y1718313D01*
X3676487Y1727100D01*
X3772900D01*
X3935000Y1767300D02*
Y1770000D01*
X3648787Y1754800D02*
X3922500D01*
X3835200Y1664800D02*
X3845000Y1655000D01*
X3835200Y1664800D02*
Y1703367D01*
X3823367Y1715200D02*
X3835200Y1703367D01*
X3784800Y1715200D02*
X3823367D01*
X3732500Y1622500D02*
X4127500D01*
X4160000Y1655000D01*
X3457500Y1652500D02*
X3533513D01*
X3445200Y1640200D02*
X3457500Y1652500D01*
X3433367Y1589800D02*
X3445200Y1601633D01*
Y1640200D01*
X3286633Y1589800D02*
X3433367D01*
X3542300Y1495867D02*
Y1643713D01*
X3533513Y1652500D02*
X3542300Y1643713D01*
X3516633Y1348787D02*
X3562500D01*
X3458787D02*
X3516633D01*
X3504800Y1361633D02*
Y1458367D01*
Y1361633D02*
X3516633Y1349800D01*
X3562500Y1348787D02*
X3622354D01*
X3504800Y1458367D02*
X3542300Y1495867D01*
X3710000Y1444800D02*
Y1451433D01*
Y1410000D02*
Y1444800D01*
X3704800Y1456633D02*
Y1480000D01*
X3823367Y1444800D02*
X3855868Y1477300D01*
X3704800Y1480000D02*
Y1553367D01*
X3855868Y1477300D02*
X3892700D01*
X3716633Y1444800D02*
X3823367D01*
X3710000Y1451433D02*
X3716633Y1444800D01*
X3892700Y1477300D02*
X3960000Y1410000D01*
X3704800Y1456633D02*
X3710000Y1451433D01*
X2798367Y1477300D02*
X2835200D01*
X2645000Y1480000D02*
Y1551068D01*
Y1456633D02*
Y1480000D01*
X2659133Y1444800D02*
X2765867D01*
X2798367Y1477300D01*
X2645000Y1418787D02*
Y1456633D01*
X2835200Y1477300D02*
X2902500Y1410000D01*
X2647300Y1456633D02*
X2659133Y1444800D01*
X1570000Y1480000D02*
Y1548567D01*
X1693367Y1444800D02*
X1728568Y1480000D01*
X1570000Y1410000D02*
Y1456633D01*
X1770000Y1480000D02*
X1840000Y1410000D01*
X1570000Y1480000D02*
X1574800Y1475200D01*
X1586633Y1444800D02*
X1693367D01*
X1574800Y1456633D02*
X1586633Y1444800D01*
X1574800Y1456633D02*
Y1475200D01*
X1728568Y1480000D02*
X1770000D01*
X530000Y1451633D02*
Y1500000D01*
Y1410000D02*
Y1451633D01*
X534800D02*
X546633Y1439800D01*
X653367D01*
X530000Y1500000D02*
Y1543568D01*
X653367Y1439800D02*
X685867Y1472300D01*
X717700D02*
X780000Y1410000D01*
X685867Y1472300D02*
X717700D01*
X90000Y298787D02*
Y870000D01*
X98787Y290000D02*
X200000D01*
X90000Y298787D02*
X98787Y290000D01*
X1130000Y280000D02*
Y871213D01*
X653367Y1104800D02*
X665200Y1116633D01*
X673987Y1177500D02*
X771213D01*
X665200Y1116633D02*
Y1168713D01*
X546633Y1104800D02*
X653367D01*
X665200Y1168713D02*
X673987Y1177500D01*
X780000Y1186287D02*
Y1341013D01*
X712500Y1245000D02*
X717500Y1240000D01*
X670000Y1245000D02*
X712500D01*
X771213Y1177500D02*
X780000Y1186287D01*
X605000Y1310000D02*
X670000Y1245000D01*
X460200Y1130200D02*
X521232D01*
X400000Y1070000D02*
X460200Y1130200D01*
X521232D02*
X546633Y1104800D01*
X4170000Y1325000D02*
Y1403713D01*
X3935000Y1770000D02*
X3955000Y1750000D01*
X3922500Y1782500D02*
X3935000Y1770000D01*
X3955000Y1750000D02*
X3960000D01*
X562500Y1622500D02*
X947500D01*
X980000Y1655000D01*
X985000D01*
X2675000Y1622500D02*
X3070000D01*
X3102500Y1655000D01*
X1995000Y1615000D02*
X2035000Y1655000D01*
X1600000Y1615000D02*
X1995000D01*
X2035000Y1655000D02*
X2045000D01*
X3227898Y1457900D02*
X3233983D01*
X3219111Y1466687D02*
Y1580000D01*
X3274800Y1601633D02*
X3286633Y1589800D01*
X3233983Y1457900D02*
X3245335Y1446548D01*
X3219111Y1466687D02*
X3227898Y1457900D01*
X4006213Y1182500D02*
X4015000Y1191287D01*
X3835200Y1173713D02*
X3843987Y1182500D01*
X4006213D01*
X4015000Y1191287D02*
Y1351432D01*
X3835200Y1116633D02*
Y1173713D01*
X3898303Y1246697D02*
X3904600Y1240400D01*
X3843303Y1246697D02*
X3898303D01*
X3823367Y1104800D02*
X3835200Y1116633D01*
X3716633Y1104800D02*
X3823367D01*
X3686433Y1135000D02*
X3716633Y1104800D01*
X3635000Y1135000D02*
X3686433D01*
X3570000Y1070000D02*
X3635000Y1135000D01*
X2765867Y1104800D02*
X2777700Y1116633D01*
X2786487Y1180000D02*
X2886213D01*
X2777700Y1116633D02*
Y1171213D01*
X2659133Y1104800D02*
X2765867D01*
X2777700Y1171213D02*
X2786487Y1180000D01*
X2886213D02*
X2895000Y1188787D01*
Y1288933D01*
X2832500Y1245000D02*
X2835000Y1242500D01*
X2512500Y1070000D02*
X2572700Y1130200D01*
X2633732D02*
X2659133Y1104800D01*
X2572700Y1130200D02*
X2633732D01*
X1586633Y1104800D02*
X1693367D01*
X1705200Y1116633D01*
X1713987Y1187834D02*
X1821213D01*
X1830000Y1196620D02*
Y1320000D01*
X1705200Y1116633D02*
Y1179047D01*
X1713987Y1187834D01*
X1821213D02*
X1830000Y1196620D01*
X1573065Y1118367D02*
X1586633Y1104800D01*
X1707500Y1252500D02*
X1770000D01*
X1477500Y1107500D02*
X1488367Y1118367D01*
X1573065D01*
X1445000Y1070000D02*
X1477500Y1102500D01*
X1440000Y1070000D02*
X1445000D01*
X1477500Y1102500D02*
Y1107500D01*
X2427997Y1557500D02*
X2436784Y1548713D01*
Y1312500D02*
Y1548713D01*
X2145000Y1566287D02*
Y2223000D01*
X2153787Y1557500D02*
X2427997D01*
X2145000Y1566287D02*
X2153787Y1557500D01*
X2145000Y2223000D02*
X2302000Y2380000D01*
X2190000Y1065000D02*
Y1114068D01*
Y871213D02*
Y1065000D01*
X2195000Y1070000D02*
X2302500D01*
X2190000Y1065000D02*
X2195000Y1070000D01*
X2215000Y1460000D02*
X2302500D01*
X2287500Y290000D02*
X2302500D01*
X2245000Y332500D02*
X2287500Y290000D01*
X2245000Y332500D02*
Y347500D01*
X2190000Y402500D02*
X2245000Y347500D01*
X2190000Y402500D02*
Y871213D01*
X2163100Y290000D02*
X2287500D01*
X718303Y1868303D02*
X725000Y1875000D01*
X718303Y1843303D02*
Y1868303D01*
X707500Y1832500D02*
X718303Y1843303D01*
X707500Y1817500D02*
Y1832500D01*
X2850000Y230000D02*
Y237175D01*
X2820000Y267175D02*
X2850000Y237175D01*
X2820000Y267175D02*
Y295000D01*
X985000Y1315000D02*
X1095000Y1425000D01*
Y1580000D01*
X1142900Y1451213D02*
X1151687Y1460000D01*
X1142900Y1398517D02*
Y1451213D01*
X1151687Y1460000D02*
X1240000D01*
X1130000Y1385617D02*
X1142900Y1398517D01*
X1130000Y1061213D02*
Y1385617D01*
X3205000Y853787D02*
X3238787Y887574D01*
X3703730Y221960D02*
Y343367D01*
X3715563Y355200D02*
X3836969D01*
X3703730Y343367D02*
X3715563Y355200D01*
X3836969D02*
X3862369Y329800D01*
X1217266Y156287D02*
X1780213D01*
X639733Y141700D02*
X1202679D01*
X702095Y231976D02*
X725000Y209071D01*
X702095Y231976D02*
Y254476D01*
X1789000Y0D02*
Y147500D01*
X700000Y256571D02*
X702095Y254476D01*
X232500Y257500D02*
X352500D01*
X725000Y199600D02*
Y209071D01*
X200000Y290000D02*
X232500Y257500D01*
X1780213Y156287D02*
X1789000Y147500D01*
X1202679Y141700D02*
X1217266Y156287D01*
X534800Y246633D02*
X639733Y141700D01*
X700000Y256571D02*
Y295000D01*
X2865000Y1782500D02*
Y1832825D01*
X2832500Y1865324D02*
X2865000Y1832825D01*
X2832500Y1865324D02*
Y1867500D01*
X707500Y1817500D02*
X775000Y1750000D01*
X1760000Y1825000D02*
Y1872500D01*
Y1825000D02*
X1835000Y1750000D01*
X1750000Y295000D02*
X1845000Y200000D01*
X1930000D01*
X3170529Y1320000D02*
X3203303Y1352774D01*
Y1393303D02*
X3210000Y1400000D01*
X3203303Y1352774D02*
Y1393303D01*
X3238787Y1250000D02*
Y1322435D01*
X3267900Y1351548D02*
Y1423983D01*
X3245335Y1446548D02*
X3267900Y1423983D01*
X3238787Y1322435D02*
X3267900Y1351548D01*
X3245335Y1446548D02*
X3258787Y1460000D01*
X3107500Y1320000D02*
X3170529D01*
X2717500Y1315000D02*
X2787500Y1245000D01*
X2832500D01*
X1645000Y1315000D02*
X1707500Y1252500D01*
X1830000Y1320000D02*
X1850816Y1340816D01*
X2638513Y255420D02*
Y260000D01*
X3107500Y635000D02*
X3140000Y602500D01*
X2606597Y85000D02*
X2931510D01*
X3140000Y561067D02*
Y602500D01*
X3102500Y635000D02*
X3107500D01*
X2551000Y29403D02*
X2606597Y85000D01*
X677300Y355200D02*
X702700Y329800D01*
X546633Y355200D02*
X677300D01*
X702700Y329800D02*
X871013D01*
X534800Y246633D02*
Y343367D01*
X871013Y329800D02*
X910000Y368787D01*
X534800Y343367D02*
X546633Y355200D01*
X1370736Y345697D02*
Y401173D01*
X1318713Y453196D02*
X1370736Y401173D01*
Y345697D02*
X1386633Y329800D01*
X1240000Y490000D02*
X1276803Y453196D01*
X1386633Y329800D02*
X1493367D01*
X1276803Y453196D02*
X1318713D01*
X980000Y1315000D02*
X985000D01*
X465200Y1750000D02*
X775000D01*
X780000D01*
X2865000Y1782500D02*
X2870000D01*
X1513987Y1750000D02*
X1835000D01*
X1840000D01*
X1754132Y1722300D02*
X1786633Y1689800D01*
X1541687Y1722300D02*
X1754132D01*
X1532900Y1690159D02*
Y1713513D01*
X1541687Y1722300D01*
X1786633Y1689800D02*
X1893367D01*
X1504841Y1662100D02*
X1532900Y1690159D01*
X1893367Y1689800D02*
X1947933Y1744366D01*
X1440000Y1410000D02*
Y1653313D01*
X1448787Y1662100D01*
X1504841D01*
X1505200Y1701633D02*
Y1741213D01*
X2217323Y1328391D02*
Y1384247D01*
X2206213Y1395357D02*
X2217323Y1384247D01*
X2040000Y1315000D02*
X2134936D01*
X2217299Y1328367D02*
X2217323Y1328391D01*
X2217299Y1141368D02*
Y1328367D01*
X2190000Y1114068D02*
X2217299Y1141368D01*
X2149952Y1330016D02*
X2159423D01*
X2134936Y1315000D02*
X2149952Y1330016D01*
X2206213Y1451213D02*
X2215000Y1460000D01*
X2206213Y1395357D02*
Y1451213D01*
X3102500Y1315000D02*
X3107500Y1320000D01*
X3238787Y887574D02*
Y1250000D01*
X2577341Y1662100D02*
X2605400Y1690159D01*
X3238787Y1250000D02*
X3258787Y1270000D01*
X2515570Y1662100D02*
X2577341D01*
X2506783Y1415716D02*
Y1653313D01*
X2515570Y1662100D01*
X4160000Y1315000D02*
X4170000Y1325000D01*
X3990000Y2080000D02*
Y2171213D01*
X3318000Y2410597D02*
Y2440000D01*
Y2410597D02*
X3373597Y2355000D01*
X3439510D01*
X3539937Y2254573D01*
X3906640D01*
X3990000Y2171213D01*
Y2080000D02*
X4010000Y2060000D01*
X2979735Y2057376D02*
X3097906D01*
X3120529Y2080000D01*
X3130000D01*
X1918495Y2057376D02*
Y2181505D01*
X1880000Y2220000D02*
X1918495Y2181505D01*
X862677Y2050383D02*
Y2187852D01*
X840000Y2210529D02*
X862677Y2187852D01*
X840000Y2210529D02*
Y2220000D01*
X2556000Y2394504D02*
X2611597Y2338907D01*
X2627689D01*
X2776597Y2190000D01*
X2556000Y2394504D02*
Y2440000D01*
X2436784Y1312500D02*
X2528567D01*
X2345000D02*
X2436784D01*
X2302000Y2380000D02*
Y2440000D01*
X2048787Y1905200D02*
X2093367D01*
X2040000Y2432000D02*
X2048000Y2440000D01*
X2040000Y1913987D02*
Y2432000D01*
Y1913987D02*
X2048787Y1905200D01*
X2045000Y1655000D02*
X2077500Y1687500D01*
Y1768933D01*
X2105200Y1796633D01*
Y1893367D01*
X2093367Y1905200D02*
X2105200Y1893367D01*
X1752787Y2398787D02*
X1794000Y2440000D01*
X1058787Y2398787D02*
X1752787D01*
X1050000Y2390000D02*
X1058787Y2398787D01*
X1050000Y1725000D02*
Y2390000D01*
X985000Y1655000D02*
X1017500Y1687500D01*
Y1692500D01*
X1050000Y1725000D01*
X3318000Y0D02*
Y29403D01*
X3373597Y85000D01*
X3745000D01*
X3880000Y220000D01*
X2297000Y0D02*
Y38903D01*
X2352597Y94500D01*
X2384500D01*
X4155000Y635000D02*
X4160000D01*
X4122500Y602500D02*
X4155000Y635000D01*
X4122500Y572500D02*
Y602500D01*
X4093900Y543900D02*
X4122500Y572500D01*
X4012467Y329800D02*
X4093900Y411232D01*
X3862369Y329800D02*
X4012467D01*
X4093900Y411232D02*
Y543900D01*
X3622297Y329799D02*
X3637700Y345202D01*
X3417500Y432500D02*
X3500000Y350000D01*
X3360000Y490000D02*
X3375000D01*
X3417500Y432500D02*
Y447500D01*
X3515362Y330000D02*
X3515563Y329799D01*
X3500000Y330000D02*
X3515362D01*
X3375000Y490000D02*
X3417500Y447500D01*
X3500000Y330000D02*
Y350000D01*
X3515563Y329799D02*
X3622297D01*
X2550000Y260000D02*
X2638513D01*
X2384500Y94500D02*
X2550000Y260000D01*
X1974800Y369187D02*
Y533367D01*
Y369187D02*
X1988787Y355200D01*
X1974800Y533367D02*
X2002500Y561067D01*
Y602500D01*
X2035000Y635000D02*
X2040000D01*
X2002500Y602500D02*
X2035000Y635000D01*
X1988787Y355200D02*
X2093367D01*
X2105200Y343367D01*
X2043000Y0D02*
Y184432D01*
X2105200Y246633D02*
Y343367D01*
X2043000Y184432D02*
X2105200Y246633D01*
X975000Y635000D02*
X980000D01*
X942500Y602500D02*
X975000Y635000D01*
X942500Y597500D02*
Y602500D01*
X910000Y565000D02*
X942500Y597500D01*
X910000Y368787D02*
Y565000D01*
X3637700Y345202D02*
Y502700D01*
X100000Y1460000D02*
X200000D01*
X90000Y1450000D02*
X100000Y1460000D01*
X90000Y1060000D02*
Y1450000D01*
X100000Y1070000D02*
X200000D01*
X90000Y1060000D02*
X100000Y1070000D01*
X90000Y870000D02*
Y1060000D01*
X100000Y880000D02*
X200000D01*
X90000Y870000D02*
X100000Y880000D01*
X1130000Y871213D02*
Y1061213D01*
X1138787Y1070000D02*
X1240000D01*
X1130000Y1061213D02*
X1138787Y1070000D01*
X1130000Y280000D02*
X1230000D01*
X1138787Y880000D02*
X1240000D01*
X1130000Y871213D02*
X1138787Y880000D01*
X1230000Y280000D02*
X1240000Y290000D01*
X2300089Y880000D02*
X2302449Y877641D01*
X2198787Y880000D02*
X2300089D01*
X2190000Y871213D02*
X2198787Y880000D01*
X3770000Y1315000D02*
X3775000D01*
X3843303Y1246697D01*
X2712500Y1315000D02*
X2717500D01*
X1640000D02*
X1645000D01*
X600000Y1310000D02*
X605000D01*
X3880000Y294999D02*
X4159100D01*
X3768930D02*
X3880000D01*
Y220000D02*
Y294999D01*
X2820000Y295000D02*
X3102500D01*
X2712500D02*
X2820000D01*
X1750000D02*
X2040000D01*
X1640000D02*
X1750000D01*
X700000D02*
X980000D01*
X600000D02*
X700000D01*
X788787Y669800D02*
X833367D01*
X780000Y390000D02*
Y661013D01*
X788787Y669800D01*
X845200Y681633D02*
Y695200D01*
X833367Y669800D02*
X845200Y681633D01*
X975000Y825000D02*
X980000D01*
X845200Y695200D02*
X975000Y825000D01*
X807500Y762500D02*
X857300D01*
X914800Y820000D02*
Y873367D01*
X857300Y762500D02*
X914800Y820000D01*
X926633Y885200D02*
X971213D01*
X980000Y893987D01*
X914800Y873367D02*
X926633Y885200D01*
X980000Y893987D02*
Y975000D01*
X680000Y635000D02*
X807500Y762500D01*
X600000Y635000D02*
X680000D01*
X520424Y561250D02*
X521250D01*
X470000Y346432D02*
Y510826D01*
X520424Y561250D01*
X400000Y390000D02*
Y480000D01*
X521250Y561250D02*
X595000Y635000D01*
X530000Y610000D02*
Y690000D01*
X400000Y480000D02*
X530000Y610000D01*
X600000Y760000D02*
Y825000D01*
X530000Y690000D02*
X600000Y760000D01*
X595000Y635000D02*
X600000D01*
X334800Y341633D02*
X346633Y329800D01*
X453367D01*
X470000Y346432D01*
X200000Y490000D02*
X215000D01*
X334800Y370200D01*
Y341633D02*
Y370200D01*
X567500Y942500D02*
X600000Y975000D01*
X512500Y942500D02*
X567500D01*
X490000Y920000D02*
X512500Y942500D01*
X490000Y740000D02*
Y920000D01*
X400000Y730000D02*
X480000D01*
X490000Y740000D01*
X200000Y680000D02*
X345000D01*
X395000Y730000D01*
X400000D01*
X947500Y1472500D02*
X980000Y1505000D01*
X895400Y1472500D02*
X947500D01*
X872900Y1450000D02*
X895400Y1472500D01*
X820000Y1110000D02*
Y1313313D01*
X828787Y1322100D01*
X844841D01*
X872900Y1350159D01*
Y1450000D01*
X780000Y1070000D02*
X785000D01*
X817500Y1102500D01*
Y1107500D01*
X820000Y1110000D01*
X788787Y1349800D02*
X833367D01*
X780000Y1341013D02*
X788787Y1349800D01*
X600000Y1500000D02*
X803567D01*
X845200Y1458367D01*
Y1361633D02*
Y1458367D01*
X833367Y1349800D02*
X845200Y1361633D01*
X595000Y1655000D02*
X600000D01*
X562500Y1622500D02*
X595000Y1655000D01*
X562500Y1617500D02*
Y1622500D01*
X556432Y1611432D02*
X562500Y1617500D01*
X556432Y1570000D02*
Y1611432D01*
X473987Y1410000D02*
X530000D01*
Y1543568D02*
X556432Y1570000D01*
X200000Y1270000D02*
X242500Y1312500D01*
X292500D01*
X300000Y1320000D01*
X465200Y1401213D02*
X473987Y1410000D01*
X465200Y1356633D02*
Y1401213D01*
X428567Y1320000D02*
X465200Y1356633D01*
X300000Y1320000D02*
X428567D01*
X713316Y1703116D02*
Y1706683D01*
X726633Y1689800D02*
X833367D01*
X887933Y1744366D02*
Y1757933D01*
X713316Y1703116D02*
X726633Y1689800D01*
X887933Y1757933D02*
X975000Y1845000D01*
X980000D01*
X833367Y1689800D02*
X887933Y1744366D01*
X492900Y1690159D02*
Y1713513D01*
X501687Y1722300D01*
X697700D01*
X713316Y1706683D01*
X400000Y1405000D02*
Y1653313D01*
X408787Y1662100D01*
X464841D01*
X492900Y1690159D01*
X453367Y1689800D02*
X465200Y1701633D01*
X230000Y1690000D02*
X300000D01*
X300200Y1689800D02*
X453367D01*
X300000Y1690000D02*
X300200Y1689800D01*
X465200Y1701633D02*
Y1750000D01*
X200000Y1660000D02*
X230000Y1690000D01*
X370200Y1779800D02*
X400000Y1750000D01*
X622677Y2035383D02*
Y2050383D01*
X570177Y1982883D02*
X622677Y2035383D01*
X555177Y1982883D02*
X570177D01*
X2007500Y1472500D02*
X2040000Y1505000D01*
X1965400Y1472500D02*
X2007500D01*
X1932900Y1440000D02*
X1965400Y1472500D01*
X1870000Y1100000D02*
Y1304330D01*
X1878787Y1313116D01*
X1895858D01*
X1932900Y1350159D01*
Y1440000D01*
X1850816Y1340816D02*
X1884384D01*
X1905200Y1361633D01*
X1840000Y1070000D02*
X1870000Y1100000D01*
X3070000Y1472500D02*
X3102500Y1505000D01*
X3027900Y1472500D02*
X3070000D01*
X2995400Y1440000D02*
X3027900Y1472500D01*
X2922700Y1270000D02*
X2995400Y1342700D01*
Y1440000D01*
X2902500Y1070000D02*
X2922700Y1090200D01*
Y1270000D01*
X2895000Y1288933D02*
X2967700Y1361633D01*
X1635000Y1655000D02*
X1640000D01*
X1602500Y1622500D02*
X1635000Y1655000D01*
X1602500Y1617500D02*
Y1622500D01*
X1600000Y1615000D02*
X1602500Y1617500D01*
X1600000Y1570000D02*
Y1615000D01*
X1515200Y1410000D02*
X1570000D01*
X1595200Y1565200D02*
X1600000Y1570000D01*
X1586633Y1565200D02*
X1595200D01*
X1570000Y1548567D02*
X1586633Y1565200D01*
X1240000Y1270000D02*
X1280000Y1310000D01*
X1453567D01*
X1505200Y1361633D02*
Y1400000D01*
X1453567Y1310000D02*
X1505200Y1361633D01*
Y1400000D02*
X1515200Y1410000D01*
X2035000Y1845000D02*
X2040000D01*
X1947933Y1757933D02*
X2035000Y1845000D01*
X1947933Y1744366D02*
Y1757933D01*
X1350200Y1689800D02*
X1493367D01*
X1505200Y1701633D01*
X1350000Y1690000D02*
X1350200Y1689800D01*
X1270000Y1690000D02*
X1350000D01*
X1240000Y1660000D02*
X1270000Y1690000D01*
X1505200Y1741213D02*
X1513987Y1750000D01*
X1678495Y2042376D02*
Y2057376D01*
X1625995Y1989876D02*
X1678495Y2042376D01*
X1610995Y1989876D02*
X1625995D01*
X1545535Y1924416D02*
X1610995Y1989876D01*
X1410000Y1780000D02*
X1440000Y1750000D01*
X1640000Y1505000D02*
X1645000Y1510000D01*
X1853567D01*
X1905200Y1361633D02*
Y1458367D01*
X1853567Y1510000D02*
X1905200Y1458367D01*
X1635000Y975000D02*
X1640000D01*
X1576250Y916250D02*
X1635000Y975000D01*
X1566250Y916250D02*
X1576250D01*
X1540000Y890000D02*
X1566250Y916250D01*
X1440000Y730000D02*
X1531213D01*
X1540000Y738787D01*
Y890000D01*
X1872500Y762500D02*
X1928527D01*
X1974800Y808773D02*
Y873367D01*
X1928527Y762500D02*
X1974800Y808773D01*
X2035000Y825000D02*
X2040000D01*
X1956250Y746250D02*
X2035000Y825000D01*
X1951450Y746250D02*
X1956250D01*
X1905200Y700000D02*
X1951450Y746250D01*
X1850000Y669800D02*
X1893367D01*
X1905200Y681633D01*
Y700000D01*
X1835000Y730000D02*
X1840000D01*
X1872500Y762500D01*
X1840000Y390000D02*
Y659800D01*
X1850000Y669800D01*
X1986633Y885200D02*
X2021213D01*
X2030000Y965000D02*
X2040000Y975000D01*
X2030000Y893987D02*
Y965000D01*
X2021213Y885200D02*
X2030000Y893987D01*
X1974800Y873367D02*
X1986633Y885200D01*
X1640000Y635000D02*
X1740000D01*
X1835000Y730000D01*
X1480000Y520000D02*
X1574800Y614800D01*
X1440000Y390000D02*
X1445000D01*
X1477500Y428787D02*
X1480000Y431287D01*
Y520000D01*
X1477500Y422500D02*
Y428787D01*
X1445000Y390000D02*
X1477500Y422500D01*
X1493367Y329800D02*
X1507700Y344132D01*
Y507700D01*
X1635000Y635000D01*
X1574800Y614800D02*
Y683367D01*
X1580000Y688567D02*
Y690000D01*
X1574800Y683367D02*
X1580000Y688567D01*
Y690000D02*
X1640000Y750000D01*
Y825000D01*
X1635000Y635000D02*
X1640000D01*
X1240000Y680000D02*
X1385000D01*
X1435000Y730000D01*
X1440000D01*
X2302449Y677641D02*
X2455140D01*
X2507500Y730000D01*
X2512500D01*
X2459132Y329800D02*
X2565867D01*
X2541213Y443713D02*
X2552500Y455000D01*
X2580200Y498726D02*
X2675000Y593527D01*
X2580200Y344132D02*
Y498726D01*
X2565867Y329800D02*
X2580200Y344132D01*
X2552500Y455000D02*
Y514173D01*
X2647300Y608973D01*
X2602500Y865000D02*
X2675000Y937500D01*
X3082500Y955000D02*
X3102500Y975000D01*
X3037299Y873367D02*
X3051432Y887500D01*
X3073713D02*
X3082500Y896287D01*
Y955000D01*
X3051432Y887500D02*
X3073713D01*
X2968326Y730000D02*
X3037299Y798974D01*
Y873367D01*
X2967700Y690200D02*
X3065000Y787500D01*
Y792500D02*
X3097500Y825000D01*
X3102500D01*
X3065000Y787500D02*
Y792500D01*
X2586487Y1410000D02*
X2653787D01*
X2712500Y1505000D02*
X2921067D01*
X2967700Y1458367D01*
Y1361633D02*
Y1458367D01*
X2302500Y1270000D02*
X2345000Y1312500D01*
X2645000Y1418787D02*
X2653787Y1410000D01*
X2577700Y1401213D02*
X2586487Y1410000D01*
X2577700Y1361633D02*
Y1401213D01*
X2528567Y1312500D02*
X2577700Y1361633D01*
X2506783Y1415716D02*
X2512500Y1410000D01*
X2675000Y593527D02*
Y602500D01*
X2647300Y697300D02*
X2705000Y755000D01*
Y817500D01*
X2675000Y602500D02*
X2707500Y635000D01*
X2712500D01*
X2647300Y608973D02*
Y697300D01*
X2593713Y730000D02*
X2602500Y738787D01*
Y865000D01*
X2512500Y730000D02*
X2593713D01*
X2902500Y390000D02*
X2927500Y415000D01*
Y650000D02*
X2947299Y669800D01*
X2967700Y681633D02*
Y690200D01*
X2947299Y669800D02*
X2955867D01*
X2897500Y730000D02*
X2968326D01*
X2955867Y669800D02*
X2967700Y681633D01*
X2927500Y415000D02*
Y650000D01*
X2672235Y1989876D02*
X2687235D01*
X2739735Y2042376D01*
Y2057376D01*
X3097500Y1845000D02*
X3102500D01*
X3010433Y1757933D02*
X3097500Y1845000D01*
X2645000Y1551068D02*
X2661432Y1567500D01*
X2332500Y1690000D02*
X2447500D01*
X2302500Y1660000D02*
X2332500Y1690000D01*
X2447700Y1689800D02*
X2565867D01*
X2707500Y1655000D02*
X2712500D01*
X2661432Y1567500D02*
Y1603933D01*
X2675000Y1617500D01*
Y1622500D01*
X2707500Y1655000D01*
X2447500Y1690000D02*
X2447700Y1689800D01*
X2482700Y1779800D02*
X2512500Y1750000D01*
X2565867Y1689800D02*
X2577700Y1701633D01*
X2602559Y1920200D02*
X2672235Y1989876D01*
X2409566Y379366D02*
X2459132Y329800D01*
X2409566Y379366D02*
Y397933D01*
X2302500Y490000D02*
X2317500D01*
X2409566Y397933D01*
X2541213Y418713D02*
Y443713D01*
X2512500Y390000D02*
X2541213Y418713D01*
X2705000Y817500D02*
X2712500Y825000D01*
Y635000D02*
X2802500D01*
X2897500Y730000D01*
X2675000Y937500D02*
Y942500D01*
X2707500Y975000D01*
X2712500D01*
X3985000Y1505000D02*
X4015000Y1475000D01*
Y1468568D02*
Y1475000D01*
X4025200Y1361633D02*
Y1458367D01*
X4015000Y1351432D02*
X4025200Y1361633D01*
X4015000Y1468568D02*
X4025200Y1458367D01*
X3770000Y1505000D02*
X3985000D01*
X4069173Y700000D02*
X4122500Y753326D01*
X4013367Y669800D02*
X4043567Y700000D01*
X4069173D01*
X3967887Y669800D02*
X4013367D01*
X3960000Y730000D02*
X4060000D01*
X4094800Y764800D01*
X3955000Y730000D02*
X3960000D01*
X3959100Y390000D02*
Y661013D01*
X3967887Y669800D01*
X4122500Y783713D02*
X4122500Y783713D01*
Y792500D01*
X4122500Y753326D02*
Y783713D01*
X4155000Y825000D02*
X4160000D01*
X4122500Y792500D02*
X4155000Y825000D01*
X4094800Y764800D02*
Y873367D01*
X3765000Y1655000D02*
X3770000D01*
X3732500Y1622500D02*
X3765000Y1655000D01*
X3732500Y1617500D02*
Y1622500D01*
X3721432Y1606432D02*
X3732500Y1617500D01*
X3721432Y1570000D02*
Y1606432D01*
X3258787Y1460000D02*
X3360000D01*
X3258787Y1270000D02*
X3360000D01*
X3238787Y887574D02*
X3251213D01*
X3258787Y880000D01*
X3360000D01*
X3770000Y2045000D02*
Y2060000D01*
X3717500Y1992500D02*
X3770000Y2045000D01*
X3702500Y1992500D02*
X3717500D01*
X3630200Y1920200D02*
X3702500Y1992500D01*
X3578787Y1662100D02*
X3634841D01*
X3570000Y1410000D02*
Y1653313D01*
X3578787Y1662100D01*
X3389800Y1689800D02*
X3623367D01*
X3640000Y1706432D01*
X3634841Y1662100D02*
X3667700Y1694959D01*
X3360000Y1660000D02*
X3389800Y1689800D01*
X3660000Y865000D02*
X3732500Y937500D01*
X3570000Y730000D02*
X3651213D01*
X3660000Y738787D01*
Y865000D01*
X3648787Y1410000D02*
X3710000D01*
X3704800Y1553367D02*
X3721432Y1570000D01*
X3640000Y1366432D02*
Y1401213D01*
X3648787Y1410000D01*
X3622354Y1348787D02*
X3640000Y1366432D01*
X3450000Y1340000D02*
X3458787Y1348787D01*
X3360000Y1070000D02*
X3375000D01*
X3417500Y1112500D01*
Y1127500D01*
X3450000Y1160000D01*
Y1340000D01*
X3965000Y1070000D02*
X4080000Y1185000D01*
Y1425000D02*
X4122500Y1467500D01*
X4080000Y1185000D02*
Y1425000D01*
X4122500Y1472500D02*
X4155000Y1505000D01*
X4122500Y1467500D02*
Y1472500D01*
X4155000Y1505000D02*
X4160000D01*
X3960000Y1070000D02*
X3965000D01*
X3765000Y975000D02*
X3770000D01*
X3732500Y942500D02*
X3765000Y975000D01*
X3732500Y937500D02*
Y942500D01*
X3360000Y680000D02*
X3515000D01*
X3565000Y730000D01*
X3570000D01*
X4111433Y890000D02*
X4121213D01*
X4128129Y943128D02*
X4160000Y975000D01*
X4128129Y896916D02*
Y943128D01*
X4121213Y890000D02*
X4128129Y896916D01*
X4094800Y873367D02*
X4111433Y890000D01*
X3770000Y635000D02*
X3860000D01*
X3955000Y730000D01*
X3770000Y750000D02*
Y825000D01*
X3700000Y680000D02*
X3770000Y750000D01*
X3610000Y520000D02*
X3700000Y610000D01*
Y680000D01*
X3637700Y502700D02*
X3732500Y597500D01*
X3568930Y389999D02*
X3573930D01*
X3606430Y422500D02*
Y427500D01*
X3573930Y389999D02*
X3606430Y422500D01*
Y427500D02*
X3610000Y431069D01*
Y520000D01*
X3765000Y635000D02*
X3770000D01*
X3732500Y602500D02*
X3765000Y635000D01*
X3732500Y597500D02*
Y602500D01*
X4159100Y294999D02*
X4159100Y295000D01*
D16*
X3572000Y2415000D02*
D03*
X3064000D02*
D03*
X3318000D02*
D03*
X2556000Y25000D02*
D03*
X2302000D02*
D03*
X2048000D02*
D03*
X1794000D02*
D03*
Y2415000D02*
D03*
X2048000D02*
D03*
X2302000D02*
D03*
X2556000D02*
D03*
X3318000Y25000D02*
D03*
X3064000D02*
D03*
D17*
X717500Y1240000D02*
D03*
X3219111Y1580000D02*
D03*
X3904600Y1240400D02*
D03*
X2835000Y1242500D02*
D03*
X1770000Y1252500D02*
D03*
X2163100Y290000D02*
D03*
X725000Y1875000D02*
D03*
X2850000Y230000D02*
D03*
X1095000Y1580000D02*
D03*
X3205000Y730000D02*
D03*
X725000Y199600D02*
D03*
X352500Y257500D02*
D03*
X1103100Y280400D02*
D03*
X2832500Y1867500D02*
D03*
X1760000Y1872500D02*
D03*
X1930000Y200000D02*
D03*
X3210000Y1400000D02*
D03*
X3140000Y1970000D02*
D03*
X3880000Y220000D02*
D03*
X370000Y2140000D02*
D03*
X1440000Y2070000D02*
D03*
X4080000Y170000D02*
D03*
X420000Y160000D02*
D03*
X2870000Y2320000D02*
D03*
X2159423Y1330016D02*
D03*
X3130000Y2080000D02*
D03*
X1880000Y2220000D02*
D03*
X840000D02*
D03*
%TF.MD5,8cac5455abf77fead0d44caa3578d2ee*%
M02*
