M48
;Layer_Color=9474304
;FILE_FORMAT=4:4
METRIC,LZ
;TYPE=PLATED
T1F00S00C0.3000
T2F00S00C1.0000
%
T01
X00193Y0002
X0021631Y00029
X00285Y00023
X003205Y00073
X00388Y00022
X00408Y00017
X0011031Y0002804
X000725Y0001996
X00042Y00016
X0003525Y0002575
X0007175Y00124
X000725Y001875
X00084Y00222
X00037Y00214
X001095Y00158
X00144Y00207
X00176Y0018725
X00188Y00222
X00177Y0012525
X00215942Y00133002
X002835Y0012425
X00321Y0014
X00321911Y00158
X00314Y00197
X00313Y00208
X00287Y00232
X0028325Y0018675
X0039046Y0012404
T02
X001794Y0
X002048
X002302
X002556
X003064
X003318
Y00244
X003572
X003064
X002556
X002302
X002048
X001794
M30
